<svg width="16" height="16" viewBox="0 0 16 16" fill="none" xmlns="http://www.w3.org/2000/svg">
<path d="M1.5 8C1.5 11.5897 4.41031 14.5 8 14.5C11.5897 14.5 14.5 11.5897 14.5 8C14.5 4.41031 11.5897 1.5 8 1.5C4.41031 1.5 1.5 4.41031 1.5 8ZM8.14531 5.145C8.19194 5.19125 8.229 5.24622 8.25437 5.30679C8.27975 5.36736 8.29295 5.43234 8.29321 5.49801C8.29347 5.56368 8.28079 5.62876 8.2559 5.68953C8.231 5.7503 8.19438 5.80557 8.14812 5.85219L6.51312 7.5H10.6875C10.8201 7.5 10.9473 7.55268 11.0411 7.64645C11.1348 7.74021 11.1875 7.86739 11.1875 8C11.1875 8.13261 11.1348 8.25979 11.0411 8.35355C10.9473 8.44732 10.8201 8.5 10.6875 8.5H6.51312L8.14812 10.1478C8.19437 10.1945 8.23098 10.2498 8.25585 10.3106C8.28073 10.3714 8.29338 10.4365 8.29309 10.5022C8.2928 10.5679 8.27957 10.6329 8.25416 10.6935C8.22875 10.7541 8.19166 10.8091 8.145 10.8553C8.09834 10.9016 8.04303 10.9382 7.98222 10.963C7.92141 10.9879 7.8563 11.0006 7.7906 11.0003C7.72491 11 7.65991 10.9868 7.59932 10.9614C7.53874 10.9359 7.48375 10.8988 7.4375 10.8522L4.95656 8.35219C4.86363 8.25853 4.81148 8.13194 4.81148 8C4.81148 7.86806 4.86363 7.74147 4.95656 7.64781L7.4375 5.14781C7.48376 5.10109 7.53877 5.06395 7.5994 5.03852C7.66003 5.01309 7.72508 4.99987 7.79082 4.9996C7.85657 4.99934 7.92172 5.01205 7.98255 5.037C8.04338 5.06195 8.09869 5.09865 8.14531 5.145Z" fill="#939393"/>
</svg>
