<svg width="250" height="96" viewBox="0 0 250 96" fill="none" xmlns="http://www.w3.org/2000/svg">
<rect x="22" width="208" height="96" rx="15" fill="white"/>
<path d="M128.878 75.5635C126.465 76.9006 123.535 76.9006 121.122 75.5635L51.5391 36.9971C44.3153 32.9933 47.1579 22.0002 55.417 22L194.583 22C202.842 22.0002 205.685 32.9933 198.461 36.9971L128.878 75.5635Z" fill="#5B0404" stroke="#5B0404" stroke-width="4"/>
<path d="M95.695 35.53C96.795 35.53 97.76 35.745 98.59 36.175C99.43 36.605 100.075 37.22 100.525 38.02C100.985 38.81 101.215 39.73 101.215 40.78C101.215 41.83 100.985 42.75 100.525 43.54C100.075 44.32 99.43 44.925 98.59 45.355C97.76 45.785 96.795 46 95.695 46H92.035V35.53H95.695ZM95.62 44.215C96.72 44.215 97.57 43.915 98.17 43.315C98.77 42.715 99.07 41.87 99.07 40.78C99.07 39.69 98.77 38.84 98.17 38.23C97.57 37.61 96.72 37.3 95.62 37.3H94.135V44.215H95.62ZM102.247 41.815C102.247 40.975 102.412 40.23 102.742 39.58C103.082 38.93 103.537 38.43 104.107 38.08C104.687 37.73 105.332 37.555 106.042 37.555C106.662 37.555 107.202 37.68 107.662 37.93C108.132 38.18 108.507 38.495 108.787 38.875V37.69H110.902V46H108.787V44.785C108.517 45.175 108.142 45.5 107.662 45.76C107.192 46.01 106.647 46.135 106.027 46.135C105.327 46.135 104.687 45.955 104.107 45.595C103.537 45.235 103.082 44.73 102.742 44.08C102.412 43.42 102.247 42.665 102.247 41.815ZM108.787 41.845C108.787 41.335 108.687 40.9 108.487 40.54C108.287 40.17 108.017 39.89 107.677 39.7C107.337 39.5 106.972 39.4 106.582 39.4C106.192 39.4 105.832 39.495 105.502 39.685C105.172 39.875 104.902 40.155 104.692 40.525C104.492 40.885 104.392 41.315 104.392 41.815C104.392 42.315 104.492 42.755 104.692 43.135C104.902 43.505 105.172 43.79 105.502 43.99C105.842 44.19 106.202 44.29 106.582 44.29C106.972 44.29 107.337 44.195 107.677 44.005C108.017 43.805 108.287 43.525 108.487 43.165C108.687 42.795 108.787 42.355 108.787 41.845ZM123.273 37.57C124.293 37.57 125.113 37.885 125.733 38.515C126.363 39.135 126.678 40.005 126.678 41.125V46H124.578V41.41C124.578 40.76 124.413 40.265 124.083 39.925C123.753 39.575 123.303 39.4 122.733 39.4C122.163 39.4 121.708 39.575 121.368 39.925C121.038 40.265 120.873 40.76 120.873 41.41V46H118.773V41.41C118.773 40.76 118.608 40.265 118.278 39.925C117.948 39.575 117.498 39.4 116.928 39.4C116.348 39.4 115.888 39.575 115.548 39.925C115.218 40.265 115.053 40.76 115.053 41.41V46H112.953V37.69H115.053V38.695C115.323 38.345 115.668 38.07 116.088 37.87C116.518 37.67 116.988 37.57 117.498 37.57C118.148 37.57 118.728 37.71 119.238 37.99C119.748 38.26 120.143 38.65 120.423 39.16C120.693 38.68 121.083 38.295 121.593 38.005C122.113 37.715 122.673 37.57 123.273 37.57ZM128.131 41.815C128.131 40.975 128.296 40.23 128.626 39.58C128.966 38.93 129.421 38.43 129.991 38.08C130.571 37.73 131.216 37.555 131.926 37.555C132.546 37.555 133.086 37.68 133.546 37.93C134.016 38.18 134.391 38.495 134.671 38.875V37.69H136.786V46H134.671V44.785C134.401 45.175 134.026 45.5 133.546 45.76C133.076 46.01 132.531 46.135 131.911 46.135C131.211 46.135 130.571 45.955 129.991 45.595C129.421 45.235 128.966 44.73 128.626 44.08C128.296 43.42 128.131 42.665 128.131 41.815ZM134.671 41.845C134.671 41.335 134.571 40.9 134.371 40.54C134.171 40.17 133.901 39.89 133.561 39.7C133.221 39.5 132.856 39.4 132.466 39.4C132.076 39.4 131.716 39.495 131.386 39.685C131.056 39.875 130.786 40.155 130.576 40.525C130.376 40.885 130.276 41.315 130.276 41.815C130.276 42.315 130.376 42.755 130.576 43.135C130.786 43.505 131.056 43.79 131.386 43.99C131.726 44.19 132.086 44.29 132.466 44.29C132.856 44.29 133.221 44.195 133.561 44.005C133.901 43.805 134.171 43.525 134.371 43.165C134.571 42.795 134.671 42.355 134.671 41.845ZM142.092 37.555C142.712 37.555 143.257 37.68 143.727 37.93C144.197 38.17 144.567 38.485 144.837 38.875V37.69H146.952V46.06C146.952 46.83 146.797 47.515 146.487 48.115C146.177 48.725 145.712 49.205 145.092 49.555C144.472 49.915 143.722 50.095 142.842 50.095C141.662 50.095 140.692 49.82 139.932 49.27C139.182 48.72 138.757 47.97 138.657 47.02H140.742C140.852 47.4 141.087 47.7 141.447 47.92C141.817 48.15 142.262 48.265 142.782 48.265C143.392 48.265 143.887 48.08 144.267 47.71C144.647 47.35 144.837 46.8 144.837 46.06V44.77C144.567 45.16 144.192 45.485 143.712 45.745C143.242 46.005 142.702 46.135 142.092 46.135C141.392 46.135 140.752 45.955 140.172 45.595C139.592 45.235 139.132 44.73 138.792 44.08C138.462 43.42 138.297 42.665 138.297 41.815C138.297 40.975 138.462 40.23 138.792 39.58C139.132 38.93 139.587 38.43 140.157 38.08C140.737 37.73 141.382 37.555 142.092 37.555ZM144.837 41.845C144.837 41.335 144.737 40.9 144.537 40.54C144.337 40.17 144.067 39.89 143.727 39.7C143.387 39.5 143.022 39.4 142.632 39.4C142.242 39.4 141.882 39.495 141.552 39.685C141.222 39.875 140.952 40.155 140.742 40.525C140.542 40.885 140.442 41.315 140.442 41.815C140.442 42.315 140.542 42.755 140.742 43.135C140.952 43.505 141.222 43.79 141.552 43.99C141.892 44.19 142.252 44.29 142.632 44.29C143.022 44.29 143.387 44.195 143.727 44.005C144.067 43.805 144.337 43.525 144.537 43.165C144.737 42.795 144.837 42.355 144.837 41.845ZM156.728 41.665C156.728 41.965 156.708 42.235 156.668 42.475H150.593C150.643 43.075 150.853 43.545 151.223 43.885C151.593 44.225 152.048 44.395 152.588 44.395C153.368 44.395 153.923 44.06 154.253 43.39H156.518C156.278 44.19 155.818 44.85 155.138 45.37C154.458 45.88 153.623 46.135 152.633 46.135C151.833 46.135 151.113 45.96 150.473 45.61C149.843 45.25 149.348 44.745 148.988 44.095C148.638 43.445 148.463 42.695 148.463 41.845C148.463 40.985 148.638 40.23 148.988 39.58C149.338 38.93 149.828 38.43 150.458 38.08C151.088 37.73 151.813 37.555 152.633 37.555C153.423 37.555 154.128 37.725 154.748 38.065C155.378 38.405 155.863 38.89 156.203 39.52C156.553 40.14 156.728 40.855 156.728 41.665ZM154.553 41.065C154.543 40.525 154.348 40.095 153.968 39.775C153.588 39.445 153.123 39.28 152.573 39.28C152.053 39.28 151.613 39.44 151.253 39.76C150.903 40.07 150.688 40.505 150.608 41.065H154.553Z" fill="white"/>
</svg>
