<svg width="278" height="96" viewBox="0 0 278 96" fill="none" xmlns="http://www.w3.org/2000/svg">
<rect width="278" height="96" rx="17" fill="white"/>
<path d="M144.429 72.2627C141.364 75.0941 136.636 75.0941 133.571 72.2627L94.1826 35.876C88.8345 30.9355 92.3296 22.0003 99.6104 22L178.39 22C185.67 22.0003 189.166 30.9355 183.817 35.876L144.429 72.2627Z" fill="#5B0404" stroke="#5B0404" stroke-width="4"/>
<path d="M119.13 33.02C119.863 33.02 120.507 33.1633 121.06 33.45C121.62 33.7367 122.05 34.1467 122.35 34.68C122.657 35.2067 122.81 35.82 122.81 36.52C122.81 37.22 122.657 37.8333 122.35 38.36C122.05 38.88 121.62 39.2833 121.06 39.57C120.507 39.8567 119.863 40 119.13 40H116.69V33.02H119.13ZM119.08 38.81C119.813 38.81 120.38 38.61 120.78 38.21C121.18 37.81 121.38 37.2467 121.38 36.52C121.38 35.7933 121.18 35.2267 120.78 34.82C120.38 34.4067 119.813 34.2 119.08 34.2H118.09V38.81H119.08ZM123.498 37.21C123.498 36.65 123.608 36.1533 123.828 35.72C124.055 35.2867 124.358 34.9533 124.738 34.72C125.125 34.4867 125.555 34.37 126.028 34.37C126.441 34.37 126.801 34.4533 127.108 34.62C127.421 34.7867 127.671 34.9967 127.858 35.25V34.46H129.268V40H127.858V39.19C127.678 39.45 127.428 39.6667 127.108 39.84C126.795 40.0067 126.431 40.09 126.018 40.09C125.551 40.09 125.125 39.97 124.738 39.73C124.358 39.49 124.055 39.1533 123.828 38.72C123.608 38.28 123.498 37.7767 123.498 37.21ZM127.858 37.23C127.858 36.89 127.791 36.6 127.658 36.36C127.525 36.1133 127.345 35.9267 127.118 35.8C126.891 35.6667 126.648 35.6 126.388 35.6C126.128 35.6 125.888 35.6633 125.668 35.79C125.448 35.9167 125.268 36.1033 125.128 36.35C124.995 36.59 124.928 36.8767 124.928 37.21C124.928 37.5433 124.995 37.8367 125.128 38.09C125.268 38.3367 125.448 38.5267 125.668 38.66C125.895 38.7933 126.135 38.86 126.388 38.86C126.648 38.86 126.891 38.7967 127.118 38.67C127.345 38.5367 127.525 38.35 127.658 38.11C127.791 37.8633 127.858 37.57 127.858 37.23ZM137.515 34.38C138.195 34.38 138.742 34.59 139.155 35.01C139.575 35.4233 139.785 36.0033 139.785 36.75V40H138.385V36.94C138.385 36.5067 138.275 36.1767 138.055 35.95C137.835 35.7167 137.535 35.6 137.155 35.6C136.775 35.6 136.472 35.7167 136.245 35.95C136.025 36.1767 135.915 36.5067 135.915 36.94V40H134.515V36.94C134.515 36.5067 134.405 36.1767 134.185 35.95C133.965 35.7167 133.665 35.6 133.285 35.6C132.899 35.6 132.592 35.7167 132.365 35.95C132.145 36.1767 132.035 36.5067 132.035 36.94V40H130.635V34.46H132.035V35.13C132.215 34.8967 132.445 34.7133 132.725 34.58C133.012 34.4467 133.325 34.38 133.665 34.38C134.099 34.38 134.485 34.4733 134.825 34.66C135.165 34.84 135.429 35.1 135.615 35.44C135.795 35.12 136.055 34.8633 136.395 34.67C136.742 34.4767 137.115 34.38 137.515 34.38ZM140.754 37.21C140.754 36.65 140.864 36.1533 141.084 35.72C141.31 35.2867 141.614 34.9533 141.994 34.72C142.38 34.4867 142.81 34.37 143.284 34.37C143.697 34.37 144.057 34.4533 144.364 34.62C144.677 34.7867 144.927 34.9967 145.114 35.25V34.46H146.524V40H145.114V39.19C144.934 39.45 144.684 39.6667 144.364 39.84C144.05 40.0067 143.687 40.09 143.274 40.09C142.807 40.09 142.38 39.97 141.994 39.73C141.614 39.49 141.31 39.1533 141.084 38.72C140.864 38.28 140.754 37.7767 140.754 37.21ZM145.114 37.23C145.114 36.89 145.047 36.6 144.914 36.36C144.78 36.1133 144.6 35.9267 144.374 35.8C144.147 35.6667 143.904 35.6 143.644 35.6C143.384 35.6 143.144 35.6633 142.924 35.79C142.704 35.9167 142.524 36.1033 142.384 36.35C142.25 36.59 142.184 36.8767 142.184 37.21C142.184 37.5433 142.25 37.8367 142.384 38.09C142.524 38.3367 142.704 38.5267 142.924 38.66C143.15 38.7933 143.39 38.86 143.644 38.86C143.904 38.86 144.147 38.7967 144.374 38.67C144.6 38.5367 144.78 38.35 144.914 38.11C145.047 37.8633 145.114 37.57 145.114 37.23ZM150.061 34.37C150.475 34.37 150.838 34.4533 151.151 34.62C151.465 34.78 151.711 34.99 151.891 35.25V34.46H153.301V40.04C153.301 40.5533 153.198 41.01 152.991 41.41C152.785 41.8167 152.475 42.1367 152.061 42.37C151.648 42.61 151.148 42.73 150.561 42.73C149.775 42.73 149.128 42.5467 148.621 42.18C148.121 41.8133 147.838 41.3133 147.771 40.68H149.161C149.235 40.9333 149.391 41.1333 149.631 41.28C149.878 41.4333 150.175 41.51 150.521 41.51C150.928 41.51 151.258 41.3867 151.511 41.14C151.765 40.9 151.891 40.5333 151.891 40.04V39.18C151.711 39.44 151.461 39.6567 151.141 39.83C150.828 40.0033 150.468 40.09 150.061 40.09C149.595 40.09 149.168 39.97 148.781 39.73C148.395 39.49 148.088 39.1533 147.861 38.72C147.641 38.28 147.531 37.7767 147.531 37.21C147.531 36.65 147.641 36.1533 147.861 35.72C148.088 35.2867 148.391 34.9533 148.771 34.72C149.158 34.4867 149.588 34.37 150.061 34.37ZM151.891 37.23C151.891 36.89 151.825 36.6 151.691 36.36C151.558 36.1133 151.378 35.9267 151.151 35.8C150.925 35.6667 150.681 35.6 150.421 35.6C150.161 35.6 149.921 35.6633 149.701 35.79C149.481 35.9167 149.301 36.1033 149.161 36.35C149.028 36.59 148.961 36.8767 148.961 37.21C148.961 37.5433 149.028 37.8367 149.161 38.09C149.301 38.3367 149.481 38.5267 149.701 38.66C149.928 38.7933 150.168 38.86 150.421 38.86C150.681 38.86 150.925 38.7967 151.151 38.67C151.378 38.5367 151.558 38.35 151.691 38.11C151.825 37.8633 151.891 37.57 151.891 37.23ZM159.819 37.11C159.819 37.31 159.805 37.49 159.779 37.65H155.729C155.762 38.05 155.902 38.3633 156.149 38.59C156.395 38.8167 156.699 38.93 157.059 38.93C157.579 38.93 157.949 38.7067 158.169 38.26H159.679C159.519 38.7933 159.212 39.2333 158.759 39.58C158.305 39.92 157.749 40.09 157.089 40.09C156.555 40.09 156.075 39.9733 155.649 39.74C155.229 39.5 154.899 39.1633 154.659 38.73C154.425 38.2967 154.309 37.7967 154.309 37.23C154.309 36.6567 154.425 36.1533 154.659 35.72C154.892 35.2867 155.219 34.9533 155.639 34.72C156.059 34.4867 156.542 34.37 157.089 34.37C157.615 34.37 158.085 34.4833 158.499 34.71C158.919 34.9367 159.242 35.26 159.469 35.68C159.702 36.0933 159.819 36.57 159.819 37.11ZM158.369 36.71C158.362 36.35 158.232 36.0633 157.979 35.85C157.725 35.63 157.415 35.52 157.049 35.52C156.702 35.52 156.409 35.6267 156.169 35.84C155.935 36.0467 155.792 36.3367 155.739 36.71H158.369Z" fill="white"/>
</svg>
