<svg width="75" height="36" viewBox="0 0 75 36" fill="none" xmlns="http://www.w3.org/2000/svg">
<path d="M39.418 31.8047C38.3064 32.7288 36.6936 32.7288 35.582 31.8047L16.9414 16.3066C14.7825 14.5117 16.0518 11 18.8594 11L56.1406 11C58.9482 11 60.2175 14.5117 58.0586 16.3066L39.418 31.8047Z" fill="#940C0C" stroke="#940C0C" stroke-width="4"/>
<path d="M31.939 15.906C32.159 15.906 32.352 15.949 32.518 16.035C32.686 16.121 32.815 16.244 32.905 16.404C32.997 16.562 33.043 16.746 33.043 16.956C33.043 17.166 32.997 17.35 32.905 17.508C32.815 17.664 32.686 17.785 32.518 17.871C32.352 17.957 32.159 18 31.939 18H31.207V15.906H31.939ZM31.924 17.643C32.144 17.643 32.314 17.583 32.434 17.463C32.554 17.343 32.614 17.174 32.614 16.956C32.614 16.738 32.554 16.568 32.434 16.446C32.314 16.322 32.144 16.26 31.924 16.26H31.627V17.643H31.924ZM33.2494 17.163C33.2494 16.995 33.2824 16.846 33.3484 16.716C33.4164 16.586 33.5074 16.486 33.6214 16.416C33.7374 16.346 33.8664 16.311 34.0084 16.311C34.1324 16.311 34.2404 16.336 34.3324 16.386C34.4264 16.436 34.5014 16.499 34.5574 16.575V16.338H34.9804V18H34.5574V17.757C34.5034 17.835 34.4284 17.9 34.3324 17.952C34.2384 18.002 34.1294 18.027 34.0054 18.027C33.8654 18.027 33.7374 17.991 33.6214 17.919C33.5074 17.847 33.4164 17.746 33.3484 17.616C33.2824 17.484 33.2494 17.333 33.2494 17.163ZM34.5574 17.169C34.5574 17.067 34.5374 16.98 34.4974 16.908C34.4574 16.834 34.4034 16.778 34.3354 16.74C34.2674 16.7 34.1944 16.68 34.1164 16.68C34.0384 16.68 33.9664 16.699 33.9004 16.737C33.8344 16.775 33.7804 16.831 33.7384 16.905C33.6984 16.977 33.6784 17.063 33.6784 17.163C33.6784 17.263 33.6984 17.351 33.7384 17.427C33.7804 17.501 33.8344 17.558 33.9004 17.598C33.9684 17.638 34.0404 17.658 34.1164 17.658C34.1944 17.658 34.2674 17.639 34.3354 17.601C34.4034 17.561 34.4574 17.505 34.4974 17.433C34.5374 17.359 34.5574 17.271 34.5574 17.169ZM37.4546 16.314C37.6586 16.314 37.8226 16.377 37.9466 16.503C38.0726 16.627 38.1356 16.801 38.1356 17.025V18H37.7156V17.082C37.7156 16.952 37.6826 16.853 37.6166 16.785C37.5506 16.715 37.4606 16.68 37.3466 16.68C37.2326 16.68 37.1416 16.715 37.0736 16.785C37.0076 16.853 36.9746 16.952 36.9746 17.082V18H36.5546V17.082C36.5546 16.952 36.5216 16.853 36.4556 16.785C36.3896 16.715 36.2996 16.68 36.1856 16.68C36.0696 16.68 35.9776 16.715 35.9096 16.785C35.8436 16.853 35.8106 16.952 35.8106 17.082V18H35.3906V16.338H35.8106V16.539C35.8646 16.469 35.9336 16.414 36.0176 16.374C36.1036 16.334 36.1976 16.314 36.2996 16.314C36.4296 16.314 36.5456 16.342 36.6476 16.398C36.7496 16.452 36.8286 16.53 36.8846 16.632C36.9386 16.536 37.0166 16.459 37.1186 16.401C37.2226 16.343 37.3346 16.314 37.4546 16.314ZM38.4261 17.163C38.4261 16.995 38.4591 16.846 38.5251 16.716C38.5931 16.586 38.6841 16.486 38.7981 16.416C38.9141 16.346 39.0431 16.311 39.1851 16.311C39.3091 16.311 39.4171 16.336 39.5091 16.386C39.6031 16.436 39.6781 16.499 39.7341 16.575V16.338H40.1571V18H39.7341V17.757C39.6801 17.835 39.6051 17.9 39.5091 17.952C39.4151 18.002 39.3061 18.027 39.1821 18.027C39.0421 18.027 38.9141 17.991 38.7981 17.919C38.6841 17.847 38.5931 17.746 38.5251 17.616C38.4591 17.484 38.4261 17.333 38.4261 17.163ZM39.7341 17.169C39.7341 17.067 39.7141 16.98 39.6741 16.908C39.6341 16.834 39.5801 16.778 39.5121 16.74C39.4441 16.7 39.3711 16.68 39.2931 16.68C39.2151 16.68 39.1431 16.699 39.0771 16.737C39.0111 16.775 38.9571 16.831 38.9151 16.905C38.8751 16.977 38.8551 17.063 38.8551 17.163C38.8551 17.263 38.8751 17.351 38.9151 17.427C38.9571 17.501 39.0111 17.558 39.0771 17.598C39.1451 17.638 39.2171 17.658 39.2931 17.658C39.3711 17.658 39.4441 17.639 39.5121 17.601C39.5801 17.561 39.6341 17.505 39.6741 17.433C39.7141 17.359 39.7341 17.271 39.7341 17.169ZM41.2184 16.311C41.3424 16.311 41.4514 16.336 41.5454 16.386C41.6394 16.434 41.7134 16.497 41.7674 16.575V16.338H42.1904V18.012C42.1904 18.166 42.1594 18.303 42.0974 18.423C42.0354 18.545 41.9424 18.641 41.8184 18.711C41.6944 18.783 41.5444 18.819 41.3684 18.819C41.1324 18.819 40.9384 18.764 40.7864 18.654C40.6364 18.544 40.5514 18.394 40.5314 18.204H40.9484C40.9704 18.28 41.0174 18.34 41.0894 18.384C41.1634 18.43 41.2524 18.453 41.3564 18.453C41.4784 18.453 41.5774 18.416 41.6534 18.342C41.7294 18.27 41.7674 18.16 41.7674 18.012V17.754C41.7134 17.832 41.6384 17.897 41.5424 17.949C41.4484 18.001 41.3404 18.027 41.2184 18.027C41.0784 18.027 40.9504 17.991 40.8344 17.919C40.7184 17.847 40.6264 17.746 40.5584 17.616C40.4924 17.484 40.4594 17.333 40.4594 17.163C40.4594 16.995 40.4924 16.846 40.5584 16.716C40.6264 16.586 40.7174 16.486 40.8314 16.416C40.9474 16.346 41.0764 16.311 41.2184 16.311ZM41.7674 17.169C41.7674 17.067 41.7474 16.98 41.7074 16.908C41.6674 16.834 41.6134 16.778 41.5454 16.74C41.4774 16.7 41.4044 16.68 41.3264 16.68C41.2484 16.68 41.1764 16.699 41.1104 16.737C41.0444 16.775 40.9904 16.831 40.9484 16.905C40.9084 16.977 40.8884 17.063 40.8884 17.163C40.8884 17.263 40.9084 17.351 40.9484 17.427C40.9904 17.501 41.0444 17.558 41.1104 17.598C41.1784 17.638 41.2504 17.658 41.3264 17.658C41.4044 17.658 41.4774 17.639 41.5454 17.601C41.6134 17.561 41.6674 17.505 41.7074 17.433C41.7474 17.359 41.7674 17.271 41.7674 17.169ZM44.1456 17.133C44.1456 17.193 44.1416 17.247 44.1336 17.295H42.9186C42.9286 17.415 42.9706 17.509 43.0446 17.577C43.1186 17.645 43.2096 17.679 43.3176 17.679C43.4736 17.679 43.5846 17.612 43.6506 17.478H44.1036C44.0556 17.638 43.9636 17.77 43.8276 17.874C43.6916 17.976 43.5246 18.027 43.3266 18.027C43.1666 18.027 43.0226 17.992 42.8946 17.922C42.7686 17.85 42.6696 17.749 42.5976 17.619C42.5276 17.489 42.4926 17.339 42.4926 17.169C42.4926 16.997 42.5276 16.846 42.5976 16.716C42.6676 16.586 42.7656 16.486 42.8916 16.416C43.0176 16.346 43.1626 16.311 43.3266 16.311C43.4846 16.311 43.6256 16.345 43.7496 16.413C43.8756 16.481 43.9726 16.578 44.0406 16.704C44.1106 16.828 44.1456 16.971 44.1456 17.133ZM43.7106 17.013C43.7086 16.905 43.6696 16.819 43.5936 16.755C43.5176 16.689 43.4246 16.656 43.3146 16.656C43.2106 16.656 43.1226 16.688 43.0506 16.752C42.9806 16.814 42.9376 16.901 42.9216 17.013H43.7106Z" fill="white"/>
</svg>
