<svg width="100" height="50" viewBox="0 0 100 50" fill="none" xmlns="http://www.w3.org/2000/svg">
<path d="M55.2373 42.8184C52.2311 45.4218 47.7689 45.4218 44.7627 42.8184L28.2842 28.5479C22.6851 23.6989 26.1138 14.5004 33.5205 14.5H66.4795C73.8862 14.5004 77.3149 23.6989 71.7158 28.5479L55.2373 42.8184Z" fill="#940C0C" stroke="#940C0C" stroke-width="4"/>
<path d="M36.191 21.114C36.7043 21.114 37.1547 21.2143 37.542 21.415C37.934 21.6157 38.235 21.9027 38.445 22.276C38.6597 22.6447 38.767 23.074 38.767 23.564C38.767 24.054 38.6597 24.4833 38.445 24.852C38.235 25.216 37.934 25.4983 37.542 25.699C37.1547 25.8997 36.7043 26 36.191 26H34.483V21.114H36.191ZM36.156 25.167C36.6693 25.167 37.066 25.027 37.346 24.747C37.626 24.467 37.766 24.0727 37.766 23.564C37.766 23.0553 37.626 22.6587 37.346 22.374C37.066 22.0847 36.6693 21.94 36.156 21.94H35.463V25.167H36.156ZM39.2486 24.047C39.2486 23.655 39.3256 23.3073 39.4796 23.004C39.6382 22.7007 39.8506 22.4673 40.1166 22.304C40.3872 22.1407 40.6882 22.059 41.0196 22.059C41.3089 22.059 41.5609 22.1173 41.7756 22.234C41.9949 22.3507 42.1699 22.4977 42.3006 22.675V22.122H43.2876V26H42.3006V25.433C42.1746 25.615 41.9996 25.7667 41.7756 25.888C41.5562 26.0047 41.3019 26.063 41.0126 26.063C40.6859 26.063 40.3872 25.979 40.1166 25.811C39.8506 25.643 39.6382 25.4073 39.4796 25.104C39.3256 24.796 39.2486 24.4437 39.2486 24.047ZM42.3006 24.061C42.3006 23.823 42.2539 23.62 42.1606 23.452C42.0672 23.2793 41.9412 23.1487 41.7826 23.06C41.6239 22.9667 41.4536 22.92 41.2716 22.92C41.0896 22.92 40.9216 22.9643 40.7676 23.053C40.6136 23.1417 40.4876 23.2723 40.3896 23.445C40.2962 23.613 40.2496 23.8137 40.2496 24.047C40.2496 24.2803 40.2962 24.4857 40.3896 24.663C40.4876 24.8357 40.6136 24.9687 40.7676 25.062C40.9262 25.1553 41.0942 25.202 41.2716 25.202C41.4536 25.202 41.6239 25.1577 41.7826 25.069C41.9412 24.9757 42.0672 24.845 42.1606 24.677C42.2539 24.5043 42.3006 24.299 42.3006 24.061ZM49.0607 22.066C49.5367 22.066 49.9194 22.213 50.2087 22.507C50.5027 22.7963 50.6497 23.2023 50.6497 23.725V26H49.6697V23.858C49.6697 23.5547 49.5927 23.3237 49.4387 23.165C49.2847 23.0017 49.0747 22.92 48.8087 22.92C48.5427 22.92 48.3304 23.0017 48.1717 23.165C48.0177 23.3237 47.9407 23.5547 47.9407 23.858V26H46.9607V23.858C46.9607 23.5547 46.8837 23.3237 46.7297 23.165C46.5757 23.0017 46.3657 22.92 46.0997 22.92C45.8291 22.92 45.6144 23.0017 45.4557 23.165C45.3017 23.3237 45.2247 23.5547 45.2247 23.858V26H44.2447V22.122H45.2247V22.591C45.3507 22.4277 45.5117 22.2993 45.7077 22.206C45.9084 22.1127 46.1277 22.066 46.3657 22.066C46.6691 22.066 46.9397 22.1313 47.1777 22.262C47.4157 22.388 47.6001 22.57 47.7307 22.808C47.8567 22.584 48.0387 22.4043 48.2767 22.269C48.5194 22.1337 48.7807 22.066 49.0607 22.066ZM51.3277 24.047C51.3277 23.655 51.4047 23.3073 51.5587 23.004C51.7173 22.7007 51.9297 22.4673 52.1957 22.304C52.4663 22.1407 52.7673 22.059 53.0987 22.059C53.388 22.059 53.64 22.1173 53.8547 22.234C54.074 22.3507 54.249 22.4977 54.3797 22.675V22.122H55.3667V26H54.3797V25.433C54.2537 25.615 54.0787 25.7667 53.8547 25.888C53.6353 26.0047 53.381 26.063 53.0917 26.063C52.765 26.063 52.4663 25.979 52.1957 25.811C51.9297 25.643 51.7173 25.4073 51.5587 25.104C51.4047 24.796 51.3277 24.4437 51.3277 24.047ZM54.3797 24.061C54.3797 23.823 54.333 23.62 54.2397 23.452C54.1463 23.2793 54.0203 23.1487 53.8617 23.06C53.703 22.9667 53.5327 22.92 53.3507 22.92C53.1687 22.92 53.0007 22.9643 52.8467 23.053C52.6927 23.1417 52.5667 23.2723 52.4687 23.445C52.3753 23.613 52.3287 23.8137 52.3287 24.047C52.3287 24.2803 52.3753 24.4857 52.4687 24.663C52.5667 24.8357 52.6927 24.9687 52.8467 25.062C53.0053 25.1553 53.1733 25.202 53.3507 25.202C53.5327 25.202 53.703 25.1577 53.8617 25.069C54.0203 24.9757 54.1463 24.845 54.2397 24.677C54.333 24.5043 54.3797 24.299 54.3797 24.061ZM57.8428 22.059C58.1322 22.059 58.3865 22.1173 58.6058 22.234C58.8252 22.346 58.9978 22.493 59.1238 22.675V22.122H60.1108V26.028C60.1108 26.3873 60.0385 26.707 59.8938 26.987C59.7492 27.2717 59.5322 27.4957 59.2428 27.659C58.9535 27.827 58.6035 27.911 58.1928 27.911C57.6422 27.911 57.1895 27.7827 56.8348 27.526C56.4848 27.2693 56.2865 26.9193 56.2398 26.476H57.2128C57.2642 26.6533 57.3738 26.7933 57.5418 26.896C57.7145 27.0033 57.9222 27.057 58.1648 27.057C58.4495 27.057 58.6805 26.9707 58.8578 26.798C59.0352 26.63 59.1238 26.3733 59.1238 26.028V25.426C58.9978 25.608 58.8228 25.7597 58.5988 25.881C58.3795 26.0023 58.1275 26.063 57.8428 26.063C57.5162 26.063 57.2175 25.979 56.9468 25.811C56.6762 25.643 56.4615 25.4073 56.3028 25.104C56.1488 24.796 56.0718 24.4437 56.0718 24.047C56.0718 23.655 56.1488 23.3073 56.3028 23.004C56.4615 22.7007 56.6738 22.4673 56.9398 22.304C57.2105 22.1407 57.5115 22.059 57.8428 22.059ZM59.1238 24.061C59.1238 23.823 59.0772 23.62 58.9838 23.452C58.8905 23.2793 58.7645 23.1487 58.6058 23.06C58.4472 22.9667 58.2768 22.92 58.0948 22.92C57.9128 22.92 57.7448 22.9643 57.5908 23.053C57.4368 23.1417 57.3108 23.2723 57.2128 23.445C57.1195 23.613 57.0728 23.8137 57.0728 24.047C57.0728 24.2803 57.1195 24.4857 57.2128 24.663C57.3108 24.8357 57.4368 24.9687 57.5908 25.062C57.7495 25.1553 57.9175 25.202 58.0948 25.202C58.2768 25.202 58.4472 25.1577 58.6058 25.069C58.7645 24.9757 58.8905 24.845 58.9838 24.677C59.0772 24.5043 59.1238 24.299 59.1238 24.061ZM64.673 23.977C64.673 24.117 64.6636 24.243 64.645 24.355H61.81C61.8333 24.635 61.9313 24.8543 62.104 25.013C62.2766 25.1717 62.489 25.251 62.741 25.251C63.105 25.251 63.364 25.0947 63.518 24.782H64.575C64.463 25.1553 64.2483 25.4633 63.931 25.706C63.6136 25.944 63.224 26.063 62.762 26.063C62.3886 26.063 62.0526 25.9813 61.754 25.818C61.46 25.65 61.229 25.4143 61.061 25.111C60.8976 24.8077 60.816 24.4577 60.816 24.061C60.816 23.6597 60.8976 23.3073 61.061 23.004C61.2243 22.7007 61.453 22.4673 61.747 22.304C62.041 22.1407 62.3793 22.059 62.762 22.059C63.1306 22.059 63.4596 22.1383 63.749 22.297C64.043 22.4557 64.2693 22.682 64.428 22.976C64.5913 23.2653 64.673 23.599 64.673 23.977ZM63.658 23.697C63.6533 23.445 63.5623 23.2443 63.385 23.095C63.2076 22.941 62.9906 22.864 62.734 22.864C62.4913 22.864 62.286 22.9387 62.118 23.088C61.9546 23.2327 61.8543 23.4357 61.817 23.697H63.658Z" fill="white"/>
</svg>
