<svg width="150" height="80" viewBox="0 0 150 80" fill="none" xmlns="http://www.w3.org/2000/svg">
<path d="M80.4287 72.2627C77.3636 75.0941 72.6364 75.0941 69.5713 72.2627L30.1826 35.876C24.8345 30.9355 28.3296 22.0003 35.6104 22L114.39 22C121.67 22.0003 125.166 30.9355 119.817 35.876L80.4287 72.2627Z" fill="#940C0C" stroke="#940C0C" stroke-width="4"/>
<path d="M55.13 33.02C55.8633 33.02 56.5067 33.1633 57.06 33.45C57.62 33.7367 58.05 34.1467 58.35 34.68C58.6567 35.2067 58.81 35.82 58.81 36.52C58.81 37.22 58.6567 37.8333 58.35 38.36C58.05 38.88 57.62 39.2833 57.06 39.57C56.5067 39.8567 55.8633 40 55.13 40H52.69V33.02H55.13ZM55.08 38.81C55.8133 38.81 56.38 38.61 56.78 38.21C57.18 37.81 57.38 37.2467 57.38 36.52C57.38 35.7933 57.18 35.2267 56.78 34.82C56.38 34.4067 55.8133 34.2 55.08 34.2H54.09V38.81H55.08ZM59.498 37.21C59.498 36.65 59.608 36.1533 59.828 35.72C60.0546 35.2867 60.358 34.9533 60.738 34.72C61.1246 34.4867 61.5546 34.37 62.028 34.37C62.4413 34.37 62.8013 34.4533 63.108 34.62C63.4213 34.7867 63.6713 34.9967 63.858 35.25V34.46H65.268V40H63.858V39.19C63.678 39.45 63.428 39.6667 63.108 39.84C62.7946 40.0067 62.4313 40.09 62.018 40.09C61.5513 40.09 61.1246 39.97 60.738 39.73C60.358 39.49 60.0546 39.1533 59.828 38.72C59.608 38.28 59.498 37.7767 59.498 37.21ZM63.858 37.23C63.858 36.89 63.7913 36.6 63.658 36.36C63.5246 36.1133 63.3446 35.9267 63.118 35.8C62.8913 35.6667 62.648 35.6 62.388 35.6C62.128 35.6 61.888 35.6633 61.668 35.79C61.448 35.9167 61.268 36.1033 61.128 36.35C60.9946 36.59 60.928 36.8767 60.928 37.21C60.928 37.5433 60.9946 37.8367 61.128 38.09C61.268 38.3367 61.448 38.5267 61.668 38.66C61.8946 38.7933 62.1346 38.86 62.388 38.86C62.648 38.86 62.8913 38.7967 63.118 38.67C63.3446 38.5367 63.5246 38.35 63.658 38.11C63.7913 37.8633 63.858 37.57 63.858 37.23ZM73.5153 34.38C74.1953 34.38 74.742 34.59 75.1553 35.01C75.5753 35.4233 75.7853 36.0033 75.7853 36.75V40H74.3853V36.94C74.3853 36.5067 74.2753 36.1767 74.0553 35.95C73.8353 35.7167 73.5353 35.6 73.1553 35.6C72.7753 35.6 72.472 35.7167 72.2453 35.95C72.0253 36.1767 71.9153 36.5067 71.9153 36.94V40H70.5153V36.94C70.5153 36.5067 70.4053 36.1767 70.1853 35.95C69.9653 35.7167 69.6653 35.6 69.2853 35.6C68.8986 35.6 68.592 35.7167 68.3653 35.95C68.1453 36.1767 68.0353 36.5067 68.0353 36.94V40H66.6353V34.46H68.0353V35.13C68.2153 34.8967 68.4453 34.7133 68.7253 34.58C69.012 34.4467 69.3253 34.38 69.6653 34.38C70.0986 34.38 70.4853 34.4733 70.8253 34.66C71.1653 34.84 71.4286 35.1 71.6153 35.44C71.7953 35.12 72.0553 34.8633 72.3953 34.67C72.742 34.4767 73.1153 34.38 73.5153 34.38ZM76.7538 37.21C76.7538 36.65 76.8638 36.1533 77.0838 35.72C77.3105 35.2867 77.6138 34.9533 77.9938 34.72C78.3805 34.4867 78.8105 34.37 79.2838 34.37C79.6972 34.37 80.0572 34.4533 80.3638 34.62C80.6772 34.7867 80.9272 34.9967 81.1138 35.25V34.46H82.5238V40H81.1138V39.19C80.9338 39.45 80.6838 39.6667 80.3638 39.84C80.0505 40.0067 79.6872 40.09 79.2738 40.09C78.8072 40.09 78.3805 39.97 77.9938 39.73C77.6138 39.49 77.3105 39.1533 77.0838 38.72C76.8638 38.28 76.7538 37.7767 76.7538 37.21ZM81.1138 37.23C81.1138 36.89 81.0472 36.6 80.9138 36.36C80.7805 36.1133 80.6005 35.9267 80.3738 35.8C80.1472 35.6667 79.9038 35.6 79.6438 35.6C79.3838 35.6 79.1438 35.6633 78.9238 35.79C78.7038 35.9167 78.5238 36.1033 78.3838 36.35C78.2505 36.59 78.1838 36.8767 78.1838 37.21C78.1838 37.5433 78.2505 37.8367 78.3838 38.09C78.5238 38.3367 78.7038 38.5267 78.9238 38.66C79.1505 38.7933 79.3905 38.86 79.6438 38.86C79.9038 38.86 80.1472 38.7967 80.3738 38.67C80.6005 38.5367 80.7805 38.35 80.9138 38.11C81.0472 37.8633 81.1138 37.57 81.1138 37.23ZM86.0612 34.37C86.4745 34.37 86.8378 34.4533 87.1512 34.62C87.4645 34.78 87.7112 34.99 87.8912 35.25V34.46H89.3012V40.04C89.3012 40.5533 89.1978 41.01 88.9912 41.41C88.7845 41.8167 88.4745 42.1367 88.0612 42.37C87.6478 42.61 87.1478 42.73 86.5612 42.73C85.7745 42.73 85.1278 42.5467 84.6212 42.18C84.1212 41.8133 83.8378 41.3133 83.7712 40.68H85.1612C85.2345 40.9333 85.3912 41.1333 85.6312 41.28C85.8778 41.4333 86.1745 41.51 86.5212 41.51C86.9278 41.51 87.2578 41.3867 87.5112 41.14C87.7645 40.9 87.8912 40.5333 87.8912 40.04V39.18C87.7112 39.44 87.4612 39.6567 87.1412 39.83C86.8278 40.0033 86.4678 40.09 86.0612 40.09C85.5945 40.09 85.1678 39.97 84.7812 39.73C84.3945 39.49 84.0878 39.1533 83.8612 38.72C83.6412 38.28 83.5312 37.7767 83.5312 37.21C83.5312 36.65 83.6412 36.1533 83.8612 35.72C84.0878 35.2867 84.3912 34.9533 84.7712 34.72C85.1578 34.4867 85.5878 34.37 86.0612 34.37ZM87.8912 37.23C87.8912 36.89 87.8245 36.6 87.6912 36.36C87.5578 36.1133 87.3778 35.9267 87.1512 35.8C86.9245 35.6667 86.6812 35.6 86.4212 35.6C86.1612 35.6 85.9212 35.6633 85.7012 35.79C85.4812 35.9167 85.3012 36.1033 85.1612 36.35C85.0278 36.59 84.9612 36.8767 84.9612 37.21C84.9612 37.5433 85.0278 37.8367 85.1612 38.09C85.3012 38.3367 85.4812 38.5267 85.7012 38.66C85.9278 38.7933 86.1678 38.86 86.4212 38.86C86.6812 38.86 86.9245 38.7967 87.1512 38.67C87.3778 38.5367 87.5578 38.35 87.6912 38.11C87.8245 37.8633 87.8912 37.57 87.8912 37.23ZM95.8185 37.11C95.8185 37.31 95.8052 37.49 95.7785 37.65H91.7285C91.7618 38.05 91.9018 38.3633 92.1485 38.59C92.3952 38.8167 92.6985 38.93 93.0585 38.93C93.5785 38.93 93.9485 38.7067 94.1685 38.26H95.6785C95.5185 38.7933 95.2118 39.2333 94.7585 39.58C94.3052 39.92 93.7485 40.09 93.0885 40.09C92.5552 40.09 92.0752 39.9733 91.6485 39.74C91.2285 39.5 90.8985 39.1633 90.6585 38.73C90.4252 38.2967 90.3085 37.7967 90.3085 37.23C90.3085 36.6567 90.4252 36.1533 90.6585 35.72C90.8918 35.2867 91.2185 34.9533 91.6385 34.72C92.0585 34.4867 92.5418 34.37 93.0885 34.37C93.6152 34.37 94.0852 34.4833 94.4985 34.71C94.9185 34.9367 95.2418 35.26 95.4685 35.68C95.7018 36.0933 95.8185 36.57 95.8185 37.11ZM94.3685 36.71C94.3618 36.35 94.2318 36.0633 93.9785 35.85C93.7252 35.63 93.4152 35.52 93.0485 35.52C92.7018 35.52 92.4085 35.6267 92.1685 35.84C91.9352 36.0467 91.7918 36.3367 91.7385 36.71H94.3685Z" fill="white"/>
</svg>
