<svg width="278" height="96" viewBox="0 0 278 96" fill="none" xmlns="http://www.w3.org/2000/svg">
<rect width="278" height="96" rx="17" fill="white"/>
<path d="M142.878 75.5635C140.465 76.9006 137.535 76.9006 135.122 75.5635L65.5391 36.9971C58.3153 32.9933 61.1579 22.0002 69.417 22L208.583 22C216.842 22.0002 219.685 32.9933 212.461 36.9971L142.878 75.5635Z" fill="#5B0404" stroke="#5B0404" stroke-width="4"/>
<path d="M109.695 35.53C110.795 35.53 111.76 35.745 112.59 36.175C113.43 36.605 114.075 37.22 114.525 38.02C114.985 38.81 115.215 39.73 115.215 40.78C115.215 41.83 114.985 42.75 114.525 43.54C114.075 44.32 113.43 44.925 112.59 45.355C111.76 45.785 110.795 46 109.695 46H106.035V35.53H109.695ZM109.62 44.215C110.72 44.215 111.57 43.915 112.17 43.315C112.77 42.715 113.07 41.87 113.07 40.78C113.07 39.69 112.77 38.84 112.17 38.23C111.57 37.61 110.72 37.3 109.62 37.3H108.135V44.215H109.62ZM116.247 41.815C116.247 40.975 116.412 40.23 116.742 39.58C117.082 38.93 117.537 38.43 118.107 38.08C118.687 37.73 119.332 37.555 120.042 37.555C120.662 37.555 121.202 37.68 121.662 37.93C122.132 38.18 122.507 38.495 122.787 38.875V37.69H124.902V46H122.787V44.785C122.517 45.175 122.142 45.5 121.662 45.76C121.192 46.01 120.647 46.135 120.027 46.135C119.327 46.135 118.687 45.955 118.107 45.595C117.537 45.235 117.082 44.73 116.742 44.08C116.412 43.42 116.247 42.665 116.247 41.815ZM122.787 41.845C122.787 41.335 122.687 40.9 122.487 40.54C122.287 40.17 122.017 39.89 121.677 39.7C121.337 39.5 120.972 39.4 120.582 39.4C120.192 39.4 119.832 39.495 119.502 39.685C119.172 39.875 118.902 40.155 118.692 40.525C118.492 40.885 118.392 41.315 118.392 41.815C118.392 42.315 118.492 42.755 118.692 43.135C118.902 43.505 119.172 43.79 119.502 43.99C119.842 44.19 120.202 44.29 120.582 44.29C120.972 44.29 121.337 44.195 121.677 44.005C122.017 43.805 122.287 43.525 122.487 43.165C122.687 42.795 122.787 42.355 122.787 41.845ZM137.273 37.57C138.293 37.57 139.113 37.885 139.733 38.515C140.363 39.135 140.678 40.005 140.678 41.125V46H138.578V41.41C138.578 40.76 138.413 40.265 138.083 39.925C137.753 39.575 137.303 39.4 136.733 39.4C136.163 39.4 135.708 39.575 135.368 39.925C135.038 40.265 134.873 40.76 134.873 41.41V46H132.773V41.41C132.773 40.76 132.608 40.265 132.278 39.925C131.948 39.575 131.498 39.4 130.928 39.4C130.348 39.4 129.888 39.575 129.548 39.925C129.218 40.265 129.053 40.76 129.053 41.41V46H126.953V37.69H129.053V38.695C129.323 38.345 129.668 38.07 130.088 37.87C130.518 37.67 130.988 37.57 131.498 37.57C132.148 37.57 132.728 37.71 133.238 37.99C133.748 38.26 134.143 38.65 134.423 39.16C134.693 38.68 135.083 38.295 135.593 38.005C136.113 37.715 136.673 37.57 137.273 37.57ZM142.131 41.815C142.131 40.975 142.296 40.23 142.626 39.58C142.966 38.93 143.421 38.43 143.991 38.08C144.571 37.73 145.216 37.555 145.926 37.555C146.546 37.555 147.086 37.68 147.546 37.93C148.016 38.18 148.391 38.495 148.671 38.875V37.69H150.786V46H148.671V44.785C148.401 45.175 148.026 45.5 147.546 45.76C147.076 46.01 146.531 46.135 145.911 46.135C145.211 46.135 144.571 45.955 143.991 45.595C143.421 45.235 142.966 44.73 142.626 44.08C142.296 43.42 142.131 42.665 142.131 41.815ZM148.671 41.845C148.671 41.335 148.571 40.9 148.371 40.54C148.171 40.17 147.901 39.89 147.561 39.7C147.221 39.5 146.856 39.4 146.466 39.4C146.076 39.4 145.716 39.495 145.386 39.685C145.056 39.875 144.786 40.155 144.576 40.525C144.376 40.885 144.276 41.315 144.276 41.815C144.276 42.315 144.376 42.755 144.576 43.135C144.786 43.505 145.056 43.79 145.386 43.99C145.726 44.19 146.086 44.29 146.466 44.29C146.856 44.29 147.221 44.195 147.561 44.005C147.901 43.805 148.171 43.525 148.371 43.165C148.571 42.795 148.671 42.355 148.671 41.845ZM156.092 37.555C156.712 37.555 157.257 37.68 157.727 37.93C158.197 38.17 158.567 38.485 158.837 38.875V37.69H160.952V46.06C160.952 46.83 160.797 47.515 160.487 48.115C160.177 48.725 159.712 49.205 159.092 49.555C158.472 49.915 157.722 50.095 156.842 50.095C155.662 50.095 154.692 49.82 153.932 49.27C153.182 48.72 152.757 47.97 152.657 47.02H154.742C154.852 47.4 155.087 47.7 155.447 47.92C155.817 48.15 156.262 48.265 156.782 48.265C157.392 48.265 157.887 48.08 158.267 47.71C158.647 47.35 158.837 46.8 158.837 46.06V44.77C158.567 45.16 158.192 45.485 157.712 45.745C157.242 46.005 156.702 46.135 156.092 46.135C155.392 46.135 154.752 45.955 154.172 45.595C153.592 45.235 153.132 44.73 152.792 44.08C152.462 43.42 152.297 42.665 152.297 41.815C152.297 40.975 152.462 40.23 152.792 39.58C153.132 38.93 153.587 38.43 154.157 38.08C154.737 37.73 155.382 37.555 156.092 37.555ZM158.837 41.845C158.837 41.335 158.737 40.9 158.537 40.54C158.337 40.17 158.067 39.89 157.727 39.7C157.387 39.5 157.022 39.4 156.632 39.4C156.242 39.4 155.882 39.495 155.552 39.685C155.222 39.875 154.952 40.155 154.742 40.525C154.542 40.885 154.442 41.315 154.442 41.815C154.442 42.315 154.542 42.755 154.742 43.135C154.952 43.505 155.222 43.79 155.552 43.99C155.892 44.19 156.252 44.29 156.632 44.29C157.022 44.29 157.387 44.195 157.727 44.005C158.067 43.805 158.337 43.525 158.537 43.165C158.737 42.795 158.837 42.355 158.837 41.845ZM170.728 41.665C170.728 41.965 170.708 42.235 170.668 42.475H164.593C164.643 43.075 164.853 43.545 165.223 43.885C165.593 44.225 166.048 44.395 166.588 44.395C167.368 44.395 167.923 44.06 168.253 43.39H170.518C170.278 44.19 169.818 44.85 169.138 45.37C168.458 45.88 167.623 46.135 166.633 46.135C165.833 46.135 165.113 45.96 164.473 45.61C163.843 45.25 163.348 44.745 162.988 44.095C162.638 43.445 162.463 42.695 162.463 41.845C162.463 40.985 162.638 40.23 162.988 39.58C163.338 38.93 163.828 38.43 164.458 38.08C165.088 37.73 165.813 37.555 166.633 37.555C167.423 37.555 168.128 37.725 168.748 38.065C169.378 38.405 169.863 38.89 170.203 39.52C170.553 40.14 170.728 40.855 170.728 41.665ZM168.553 41.065C168.543 40.525 168.348 40.095 167.968 39.775C167.588 39.445 167.123 39.28 166.573 39.28C166.053 39.28 165.613 39.44 165.253 39.76C164.903 40.07 164.688 40.505 164.608 41.065H168.553Z" fill="white"/>
</svg>
