<svg width="20" height="20" viewBox="0 0 20 20" fill="none" xmlns="http://www.w3.org/2000/svg">
<path d="M2.73047 16.1368L5.19219 0.384577C5.20693 0.290437 5.25088 0.203309 5.31782 0.135498C5.38476 0.0676873 5.47132 0.0226211 5.56526 0.00666485C5.6592 -0.00929138 5.75578 0.00466882 5.84136 0.0465736C5.92694 0.0884785 5.99719 0.15621 6.04219 0.240202L8.58813 4.98864L9.60281 3.05645C9.6414 2.98316 9.69926 2.9218 9.77017 2.879C9.84108 2.83619 9.92233 2.81357 10.0052 2.81357C10.088 2.81357 10.1692 2.83619 10.2401 2.879C10.3111 2.9218 10.3689 2.98316 10.4075 3.05645L17.2778 16.1368H2.73047Z" fill="#FFA000"/>
<path d="M11.235 10.0007L8.58688 4.98633L2.73047 16.1368L11.235 10.0007Z" fill="#F57C00"/>
<path d="M17.2778 16.137L15.3923 4.46946C15.3784 4.38722 15.3421 4.31039 15.2874 4.24739C15.2328 4.18439 15.1618 4.13765 15.0823 4.11227C15.0029 4.08697 14.918 4.08399 14.837 4.10366C14.756 4.12334 14.682 4.16491 14.623 4.22384L2.73047 16.1368L9.31094 19.8271C9.51416 19.9406 9.74304 20.0001 9.97578 20.0001C10.2085 20.0001 10.4374 19.9406 10.6406 19.8271L17.2778 16.137Z" fill="#FFCA28"/>
<path d="M15.392 4.46929C15.3781 4.38704 15.3418 4.31021 15.2871 4.24722C15.2324 4.18422 15.1615 4.13747 15.082 4.1121C15.0026 4.08677 14.9177 4.08377 14.8367 4.10342C14.7557 4.12306 14.6816 4.16461 14.6226 4.22351L12.2622 6.59022L10.4061 3.05647C10.3675 2.98318 10.3096 2.92182 10.2387 2.87902C10.1678 2.83621 10.0866 2.81359 10.0037 2.81359C9.9209 2.81359 9.83965 2.83621 9.76874 2.87902C9.69784 2.92182 9.63997 2.98318 9.60139 3.05647L8.5867 4.98851L6.04076 0.240225C5.99571 0.156117 5.92533 0.0883151 5.83961 0.0464198C5.75388 0.00452448 5.65715 -0.00934093 5.56311 0.00678702C5.46913 0.0229105 5.3826 0.0681709 5.31575 0.136167C5.2489 0.204163 5.20512 0.291454 5.19061 0.385693L2.73014 16.1368H2.72217L2.72998 16.1458L2.79482 16.1777L14.6192 4.3396C14.6782 4.28037 14.7523 4.23854 14.8335 4.2187C14.9147 4.19887 14.9998 4.2018 15.0794 4.22716C15.1591 4.25253 15.2302 4.29935 15.2849 4.36249C15.3397 4.42563 15.376 4.50265 15.3898 4.58507L17.2594 16.148L17.2775 16.1366L15.392 4.46929ZM2.7517 16.1152L5.1917 0.497099C5.2062 0.40281 5.24998 0.315468 5.31686 0.247439C5.38374 0.17941 5.47033 0.13414 5.56436 0.118037C5.65841 0.101923 5.75516 0.115811 5.84089 0.157736C5.92662 0.19966 5.99698 0.267495 6.04201 0.351631L8.58764 5.10007L9.60248 3.16788C9.64106 3.09459 9.69893 3.03323 9.76984 2.99042C9.84075 2.94762 9.922 2.925 10.0048 2.925C10.0876 2.925 10.1689 2.94762 10.2398 2.99042C10.3107 3.03323 10.3686 3.09459 10.4072 3.16788L12.2256 6.62647L2.75139 16.1152H2.7517Z" fill="white" fill-opacity="0.2"/>
<path opacity="0.2" d="M10.6405 19.7155C10.4372 19.8289 10.2084 19.8885 9.97561 19.8885C9.74286 19.8885 9.51399 19.8289 9.31076 19.7155L2.74592 16.0358L2.72998 16.1369L9.31045 19.826C9.51368 19.9394 9.74255 19.999 9.97529 19.999C10.208 19.999 10.4369 19.9394 10.6401 19.826L17.2776 16.1369L17.2605 16.0322L10.6401 19.7158L10.6405 19.7155Z" fill="#A52714"/>
</svg>
