<svg width="25" height="25" viewBox="0 0 25 25" fill="none" xmlns="http://www.w3.org/2000/svg">
<path d="M12.5 0.5C9.3174 0.5 6.26515 1.76428 4.01472 4.01472C1.76428 6.26516 0.5 9.3174 0.5 12.5C0.500082 14.0759 0.810553 15.6363 1.41368 17.0922C2.01682 18.548 2.9008 19.8709 4.01516 20.9851C5.12952 22.0993 6.45244 22.9832 7.90838 23.5862C9.36432 24.1892 10.9248 24.4995 12.5006 24.4994C14.0765 24.4993 15.6369 24.1888 17.0928 23.5857C18.5487 22.9826 19.8715 22.0986 20.9857 20.9842C22.1 19.8699 22.9838 18.5469 23.5868 17.091C24.1898 15.6351 24.5001 14.0746 24.5 12.4988C24.5 5.8725 19.1263 0.5 12.5 0.5ZM12.3113 19.4988H12.2475C11.27 19.47 10.58 18.7488 10.6088 17.785C10.6363 16.8375 11.3425 16.1488 12.2875 16.1488L12.345 16.1513C13.35 16.18 14.0325 16.8938 14.0038 17.885C13.975 18.835 13.2812 19.4988 12.3113 19.4988ZM16.425 11.335C16.195 11.66 15.69 12.0675 15.0525 12.5638L14.35 13.0475C13.9667 13.3458 13.7321 13.6325 13.6462 13.9075C13.5763 14.125 13.5438 14.1838 13.5375 14.6275V14.74H10.8563L10.8638 14.5125C10.8975 13.5825 10.92 13.0325 11.3063 12.5788C11.9125 11.8688 13.25 11.0063 13.3063 10.97C13.489 10.8351 13.649 10.6718 13.78 10.4863C14.0613 10.0975 14.185 9.7925 14.185 9.495C14.185 9.0775 14.0625 8.69125 13.8188 8.35C13.5838 8.0175 13.1375 7.8525 12.4925 7.8525C11.8525 7.8525 11.4138 8.055 11.1525 8.4725C10.8825 8.89875 10.7463 9.3475 10.7463 9.80625V9.92125H7.9825L7.9875 9.80125C8.05875 8.11 8.66375 6.89125 9.78125 6.18C10.485 5.72875 11.3613 5.5 12.3825 5.5C13.7175 5.5 14.8475 5.825 15.735 6.465C16.6363 7.11375 17.0925 8.08625 17.0925 9.35375C17.0912 10.0625 16.8675 10.7288 16.425 11.335Z" fill="white"/>
</svg>
