<svg width="30" height="30" viewBox="0 0 30 30" fill="none" xmlns="http://www.w3.org/2000/svg">
<path d="M27.5 15C27.5 8.09625 21.9037 2.5 15 2.5C8.09625 2.5 2.5 8.09625 2.5 15C2.5 21.9037 8.09625 27.5 15 27.5" stroke="#575757" stroke-width="1.5" stroke-linecap="round" stroke-linejoin="round"/>
<path d="M16.2501 2.5625C16.2501 2.5625 20.0001 7.5 20.0001 15M13.7501 27.4375C13.7501 27.4375 10.0001 22.5 10.0001 15C10.0001 7.5 13.7501 2.5625 13.7501 2.5625M3.2876 19.375H15.0001M3.2876 10.625H26.7126" stroke="#575757" stroke-width="1.5" stroke-linecap="round" stroke-linejoin="round"/>
<path d="M27.349 22.3961C27.9665 22.7761 27.9277 23.6998 27.2927 23.7723L24.084 24.1361L22.6452 27.0261C22.3602 27.5998 21.479 27.3186 21.3327 26.6086L19.764 18.9636C19.6402 18.3636 20.1802 17.9861 20.7015 18.3073L27.349 22.3961Z" stroke="#575757" stroke-width="1.5"/>
</svg>
