<svg width="239" height="105" viewBox="0 0 239 105" fill="none" xmlns="http://www.w3.org/2000/svg">
<path d="M13.92 83.04L8.8 97H5.4L0.28 83.04H3.28L7.12 94.14L10.94 83.04H13.92ZM17.0188 84.6C16.5254 84.6 16.1121 84.4467 15.7788 84.14C15.4588 83.82 15.2988 83.4267 15.2988 82.96C15.2988 82.4933 15.4588 82.1067 15.7788 81.8C16.1121 81.48 16.5254 81.32 17.0188 81.32C17.5121 81.32 17.9188 81.48 18.2388 81.8C18.5721 82.1067 18.7388 82.4933 18.7388 82.96C18.7388 83.4267 18.5721 83.82 18.2388 84.14C17.9188 84.4467 17.5121 84.6 17.0188 84.6ZM18.3988 85.92V97H15.5988V85.92H18.3988ZM31.4652 91.22C31.4652 91.62 31.4385 91.98 31.3852 92.3H23.2852C23.3518 93.1 23.6318 93.7267 24.1252 94.18C24.6185 94.6333 25.2252 94.86 25.9452 94.86C26.9852 94.86 27.7252 94.4133 28.1652 93.52H31.1852C30.8652 94.5867 30.2518 95.4667 29.3452 96.16C28.4385 96.84 27.3252 97.18 26.0052 97.18C24.9385 97.18 23.9785 96.9467 23.1252 96.48C22.2852 96 21.6252 95.3267 21.1452 94.46C20.6785 93.5933 20.4452 92.5933 20.4452 91.46C20.4452 90.3133 20.6785 89.3067 21.1452 88.44C21.6118 87.5733 22.2652 86.9067 23.1052 86.44C23.9452 85.9733 24.9118 85.74 26.0052 85.74C27.0585 85.74 27.9985 85.9667 28.8252 86.42C29.6652 86.8733 30.3118 87.52 30.7652 88.36C31.2318 89.1867 31.4652 90.14 31.4652 91.22ZM28.5652 90.42C28.5518 89.7 28.2918 89.1267 27.7852 88.7C27.2785 88.26 26.6585 88.04 25.9252 88.04C25.2318 88.04 24.6452 88.2533 24.1652 88.68C23.6985 89.0933 23.4118 89.6733 23.3052 90.42H28.5652ZM48.8689 85.92L45.6289 97H42.6089L40.5889 89.26L38.5689 97H35.5289L32.2689 85.92H35.1089L37.0689 94.36L39.1889 85.92H42.1489L44.2289 94.34L46.1889 85.92H48.8689ZM54.4295 91.42C54.4295 90.3 54.6495 89.3067 55.0895 88.44C55.5429 87.5733 56.1495 86.9067 56.9095 86.44C57.6829 85.9733 58.5429 85.74 59.4895 85.74C60.3162 85.74 61.0362 85.9067 61.6495 86.24C62.2762 86.5733 62.7762 86.9933 63.1495 87.5V85.92H65.9695V97H63.1495V95.38C62.7895 95.9 62.2895 96.3333 61.6495 96.68C61.0229 97.0133 60.2962 97.18 59.4695 97.18C58.5362 97.18 57.6829 96.94 56.9095 96.46C56.1495 95.98 55.5429 95.3067 55.0895 94.44C54.6495 93.56 54.4295 92.5533 54.4295 91.42ZM63.1495 91.46C63.1495 90.78 63.0162 90.2 62.7495 89.72C62.4829 89.2267 62.1229 88.8533 61.6695 88.6C61.2162 88.3333 60.7295 88.2 60.2095 88.2C59.6895 88.2 59.2095 88.3267 58.7695 88.58C58.3295 88.8333 57.9695 89.2067 57.6895 89.7C57.4229 90.18 57.2895 90.7533 57.2895 91.42C57.2895 92.0867 57.4229 92.6733 57.6895 93.18C57.9695 93.6733 58.3295 94.0533 58.7695 94.32C59.2229 94.5867 59.7029 94.72 60.2095 94.72C60.7295 94.72 61.2162 94.5933 61.6695 94.34C62.1229 94.0733 62.4829 93.7 62.7495 93.22C63.0162 92.7267 63.1495 92.14 63.1495 91.46ZM74.8442 85.76C76.1642 85.76 77.2309 86.18 78.0442 87.02C78.8576 87.8467 79.2642 89.0067 79.2642 90.5V97H76.4642V90.88C76.4642 90 76.2442 89.3267 75.8042 88.86C75.3642 88.38 74.7642 88.14 74.0042 88.14C73.2309 88.14 72.6176 88.38 72.1642 88.86C71.7242 89.3267 71.5042 90 71.5042 90.88V97H68.7042V85.92H71.5042V87.3C71.8776 86.82 72.3509 86.4467 72.9242 86.18C73.5109 85.9 74.1509 85.76 74.8442 85.76ZM81.2069 91.42C81.2069 90.3 81.4269 89.3067 81.8669 88.44C82.3202 87.5733 82.9335 86.9067 83.7069 86.44C84.4802 85.9733 85.3402 85.74 86.2869 85.74C87.0069 85.74 87.6935 85.9 88.3469 86.22C89.0002 86.5267 89.5202 86.94 89.9069 87.46V82.2H92.7469V97H89.9069V95.36C89.5602 95.9067 89.0735 96.3467 88.4469 96.68C87.8202 97.0133 87.0935 97.18 86.2669 97.18C85.3335 97.18 84.4802 96.94 83.7069 96.46C82.9335 95.98 82.3202 95.3067 81.8669 94.44C81.4269 93.56 81.2069 92.5533 81.2069 91.42ZM89.9269 91.46C89.9269 90.78 89.7935 90.2 89.5269 89.72C89.2602 89.2267 88.9002 88.8533 88.4469 88.6C87.9935 88.3333 87.5069 88.2 86.9869 88.2C86.4669 88.2 85.9869 88.3267 85.5469 88.58C85.1069 88.8333 84.7469 89.2067 84.4669 89.7C84.2002 90.18 84.0669 90.7533 84.0669 91.42C84.0669 92.0867 84.2002 92.6733 84.4669 93.18C84.7469 93.6733 85.1069 94.0533 85.5469 94.32C86.0002 94.5867 86.4802 94.72 86.9869 94.72C87.5069 94.72 87.9935 94.5933 88.4469 94.34C88.9002 94.0733 89.2602 93.7 89.5269 93.22C89.7935 92.7267 89.9269 92.14 89.9269 91.46ZM103.047 85.3V88.8H107.747V91.02H103.047V94.72H108.347V97H100.247V83.02H108.347V85.3H103.047ZM110.172 91.42C110.172 90.3 110.392 89.3067 110.832 88.44C111.285 87.5733 111.898 86.9067 112.672 86.44C113.445 85.9733 114.305 85.74 115.252 85.74C115.972 85.74 116.658 85.9 117.312 86.22C117.965 86.5267 118.485 86.94 118.872 87.46V82.2H121.712V97H118.872V95.36C118.525 95.9067 118.038 96.3467 117.412 96.68C116.785 97.0133 116.058 97.18 115.232 97.18C114.298 97.18 113.445 96.94 112.672 96.46C111.898 95.98 111.285 95.3067 110.832 94.44C110.392 93.56 110.172 92.5533 110.172 91.42ZM118.892 91.46C118.892 90.78 118.758 90.2 118.492 89.72C118.225 89.2267 117.865 88.8533 117.412 88.6C116.958 88.3333 116.472 88.2 115.952 88.2C115.432 88.2 114.952 88.3267 114.512 88.58C114.072 88.8333 113.712 89.2067 113.432 89.7C113.165 90.18 113.032 90.7533 113.032 91.42C113.032 92.0867 113.165 92.6733 113.432 93.18C113.712 93.6733 114.072 94.0533 114.512 94.32C114.965 94.5867 115.445 94.72 115.952 94.72C116.472 94.72 116.958 94.5933 117.412 94.34C117.865 94.0733 118.225 93.7 118.492 93.22C118.758 92.7267 118.892 92.14 118.892 91.46ZM125.866 84.6C125.373 84.6 124.96 84.4467 124.626 84.14C124.306 83.82 124.146 83.4267 124.146 82.96C124.146 82.4933 124.306 82.1067 124.626 81.8C124.96 81.48 125.373 81.32 125.866 81.32C126.36 81.32 126.766 81.48 127.086 81.8C127.42 82.1067 127.586 82.4933 127.586 82.96C127.586 83.4267 127.42 83.82 127.086 84.14C126.766 84.4467 126.36 84.6 125.866 84.6ZM127.246 85.92V97H124.446V85.92H127.246ZM133.273 88.22V93.58C133.273 93.9533 133.359 94.2267 133.533 94.4C133.719 94.56 134.026 94.64 134.453 94.64H135.753V97H133.993C131.633 97 130.453 95.8533 130.453 93.56V88.22H129.133V85.92H130.453V83.18H133.273V85.92H135.753V88.22H133.273ZM145.332 83.04V97H142.532V83.04H145.332ZM154.239 85.76C155.559 85.76 156.625 86.18 157.439 87.02C158.252 87.8467 158.659 89.0067 158.659 90.5V97H155.859V90.88C155.859 90 155.639 89.3267 155.199 88.86C154.759 88.38 154.159 88.14 153.399 88.14C152.625 88.14 152.012 88.38 151.559 88.86C151.119 89.3267 150.899 90 150.899 90.88V97H148.099V85.92H150.899V87.3C151.272 86.82 151.745 86.4467 152.319 86.18C152.905 85.9 153.545 85.76 154.239 85.76ZM165.941 94.42L168.741 85.92H171.721L167.621 97H164.221L160.141 85.92H163.141L165.941 94.42ZM183.594 91.22C183.594 91.62 183.567 91.98 183.514 92.3H175.414C175.481 93.1 175.761 93.7267 176.254 94.18C176.747 94.6333 177.354 94.86 178.074 94.86C179.114 94.86 179.854 94.4133 180.294 93.52H183.314C182.994 94.5867 182.381 95.4667 181.474 96.16C180.567 96.84 179.454 97.18 178.134 97.18C177.067 97.18 176.107 96.9467 175.254 96.48C174.414 96 173.754 95.3267 173.274 94.46C172.807 93.5933 172.574 92.5933 172.574 91.46C172.574 90.3133 172.807 89.3067 173.274 88.44C173.741 87.5733 174.394 86.9067 175.234 86.44C176.074 85.9733 177.041 85.74 178.134 85.74C179.187 85.74 180.127 85.9667 180.954 86.42C181.794 86.8733 182.441 87.52 182.894 88.36C183.361 89.1867 183.594 90.14 183.594 91.22ZM180.694 90.42C180.681 89.7 180.421 89.1267 179.914 88.7C179.407 88.26 178.787 88.04 178.054 88.04C177.361 88.04 176.774 88.2533 176.294 88.68C175.827 89.0933 175.541 89.6733 175.434 90.42H180.694ZM191.778 85.76C193.098 85.76 194.164 86.18 194.978 87.02C195.791 87.8467 196.198 89.0067 196.198 90.5V97H193.398V90.88C193.398 90 193.178 89.3267 192.738 88.86C192.298 88.38 191.698 88.14 190.938 88.14C190.164 88.14 189.551 88.38 189.098 88.86C188.658 89.3267 188.438 90 188.438 90.88V97H185.638V85.92H188.438V87.3C188.811 86.82 189.284 86.4467 189.858 86.18C190.444 85.9 191.084 85.76 191.778 85.76ZM202.12 88.22V93.58C202.12 93.9533 202.207 94.2267 202.38 94.4C202.567 94.56 202.874 94.64 203.3 94.64H204.6V97H202.84C200.48 97 199.3 95.8533 199.3 93.56V88.22H197.98V85.92H199.3V83.18H202.12V85.92H204.6V88.22H202.12ZM211.534 97.18C210.468 97.18 209.508 96.9467 208.654 96.48C207.801 96 207.128 95.3267 206.634 94.46C206.154 93.5933 205.914 92.5933 205.914 91.46C205.914 90.3267 206.161 89.3267 206.654 88.46C207.161 87.5933 207.848 86.9267 208.714 86.46C209.581 85.98 210.548 85.74 211.614 85.74C212.681 85.74 213.648 85.98 214.514 86.46C215.381 86.9267 216.061 87.5933 216.554 88.46C217.061 89.3267 217.314 90.3267 217.314 91.46C217.314 92.5933 217.054 93.5933 216.534 94.46C216.028 95.3267 215.334 96 214.454 96.48C213.588 96.9467 212.614 97.18 211.534 97.18ZM211.534 94.74C212.041 94.74 212.514 94.62 212.954 94.38C213.408 94.1267 213.768 93.7533 214.034 93.26C214.301 92.7667 214.434 92.1667 214.434 91.46C214.434 90.4067 214.154 89.6 213.594 89.04C213.048 88.4667 212.374 88.18 211.574 88.18C210.774 88.18 210.101 88.4667 209.554 89.04C209.021 89.6 208.754 90.4067 208.754 91.46C208.754 92.5133 209.014 93.3267 209.534 93.9C210.068 94.46 210.734 94.74 211.534 94.74ZM222.168 87.64C222.528 87.0533 222.995 86.5933 223.568 86.26C224.155 85.9267 224.822 85.76 225.568 85.76V88.7H224.828C223.948 88.7 223.282 88.9067 222.828 89.32C222.388 89.7333 222.168 90.4533 222.168 91.48V97H219.368V85.92H222.168V87.64ZM238.054 85.92L231.194 102.24H228.214L230.614 96.72L226.174 85.92H229.314L232.174 93.66L235.074 85.92H238.054Z" fill="white"/>
<path d="M101.25 37.5C101.803 37.5 102.333 37.2805 102.723 36.8898C103.114 36.4991 103.334 35.9692 103.334 35.4167C103.334 34.8642 103.114 34.3343 102.723 33.9436C102.333 33.5529 101.803 33.3334 101.25 33.3334C100.698 33.3334 100.168 33.5529 99.7772 33.9436C99.3865 34.3343 99.167 34.8642 99.167 35.4167C99.167 35.9692 99.3865 36.4991 99.7772 36.8898C100.168 37.2805 100.698 37.5 101.25 37.5Z" fill="white" stroke="white" stroke-width="1.5" stroke-linecap="round" stroke-linejoin="round"/>
<path d="M138.75 15.3187V34.6812C138.75 34.9044 138.69 35.1235 138.577 35.3159C138.464 35.5082 138.301 35.6667 138.106 35.775L120.606 45.4958C120.421 45.5987 120.212 45.6527 120 45.6527C119.788 45.6527 119.579 45.5987 119.394 45.4958L101.894 35.775C101.699 35.6667 101.536 35.5082 101.423 35.3159C101.31 35.1235 101.25 34.9044 101.25 34.6812V15.3187C101.25 15.0959 101.31 14.8772 101.423 14.6853C101.536 14.4933 101.699 14.3351 101.894 14.2271L119.394 4.50415C119.579 4.40127 119.788 4.34729 120 4.34729C120.212 4.34729 120.421 4.40127 120.606 4.50415L138.106 14.2271C138.301 14.3351 138.464 14.4933 138.577 14.6853C138.69 14.8772 138.75 15.0959 138.75 15.3187Z" stroke="white" stroke-width="1.5" stroke-linecap="round" stroke-linejoin="round"/>
<path d="M102.351 15.1958L119.392 24.6625C119.578 24.7657 119.787 24.8199 120 24.8199C120.212 24.8199 120.421 24.7657 120.607 24.6625L137.709 15.1625M120.001 43.75V25" stroke="white" stroke-width="1.5" stroke-linecap="round" stroke-linejoin="round"/>
</svg>
