<svg width="281" height="30" viewBox="0 0 281 30" fill="none" xmlns="http://www.w3.org/2000/svg">
<path d="M1.48 10.36C1.29333 10.0667 1.12 9.66667 0.96 9.16C0.8 8.65333 0.72 8.12 0.72 7.56C0.72 6.52 0.946667 5.77333 1.4 5.32C1.88 4.86667 2.49333 4.64 3.24 4.64H20.68C20.8667 4.93333 21.04 5.33333 21.2 5.84C21.36 6.34667 21.44 6.88 21.44 7.44C21.44 8.48 21.2 9.22667 20.72 9.68C20.2667 10.1333 19.6667 10.36 18.92 10.36H14.48V28.84C14.1867 28.92 13.72 29 13.08 29.08C12.4667 29.16 11.8533 29.2 11.24 29.2C10.6267 29.2 10.08 29.1467 9.6 29.04C9.14667 28.96 8.76 28.8 8.44 28.56C8.12 28.32 7.88 27.9867 7.72 27.56C7.56 27.1333 7.48 26.5733 7.48 25.88V10.36H1.48ZM32.2038 29.64C30.6304 29.64 29.1638 29.4267 27.8038 29C26.4704 28.5467 25.2971 27.88 24.2838 27C23.2971 26.12 22.5104 25.0133 21.9238 23.68C21.3638 22.3467 21.0838 20.7867 21.0838 19C21.0838 17.24 21.3638 15.7333 21.9238 14.48C22.5104 13.2 23.2704 12.16 24.2038 11.36C25.1371 10.5333 26.2038 9.93333 27.4038 9.56C28.6038 9.16 29.8304 8.96 31.0838 8.96C32.4971 8.96 33.7771 9.17333 34.9238 9.6C36.0971 10.0267 37.0971 10.6133 37.9238 11.36C38.7771 12.1067 39.4304 13 39.8838 14.04C40.3638 15.08 40.6038 16.2133 40.6038 17.44C40.6038 18.3467 40.3504 19.04 39.8438 19.52C39.3371 20 38.6304 20.3067 37.7238 20.44L27.8438 21.92C28.1371 22.8 28.7371 23.4667 29.6438 23.92C30.5504 24.3467 31.5904 24.56 32.7638 24.56C33.8571 24.56 34.8838 24.4267 35.8438 24.16C36.8304 23.8667 37.6304 23.5333 38.2438 23.16C38.6704 23.4267 39.0304 23.8 39.3238 24.28C39.6171 24.76 39.7638 25.2667 39.7638 25.8C39.7638 27 39.2038 27.8933 38.0838 28.48C37.2304 28.9333 36.2704 29.24 35.2038 29.4C34.1371 29.56 33.1371 29.64 32.2038 29.64ZM31.0838 13.92C30.4438 13.92 29.8838 14.0267 29.4038 14.24C28.9504 14.4533 28.5771 14.7333 28.2838 15.08C27.9904 15.4 27.7638 15.7733 27.6038 16.2C27.4704 16.6 27.3904 17.0133 27.3638 17.44L34.2038 16.32C34.1238 15.7867 33.8304 15.2533 33.3238 14.72C32.8171 14.1867 32.0704 13.92 31.0838 13.92ZM54.1569 29.64C52.5835 29.64 51.1169 29.4267 49.7569 29C48.4235 28.5467 47.2502 27.88 46.2369 27C45.2502 26.12 44.4635 25.0133 43.8769 23.68C43.3169 22.3467 43.0369 20.7867 43.0369 19C43.0369 17.24 43.3169 15.7333 43.8769 14.48C44.4635 13.2 45.2235 12.16 46.1569 11.36C47.0902 10.5333 48.1569 9.93333 49.3569 9.56C50.5569 9.16 51.7835 8.96 53.0369 8.96C54.4502 8.96 55.7302 9.17333 56.8769 9.6C58.0502 10.0267 59.0502 10.6133 59.8769 11.36C60.7302 12.1067 61.3835 13 61.8369 14.04C62.3169 15.08 62.5569 16.2133 62.5569 17.44C62.5569 18.3467 62.3035 19.04 61.7969 19.52C61.2902 20 60.5835 20.3067 59.6769 20.44L49.7969 21.92C50.0902 22.8 50.6902 23.4667 51.5969 23.92C52.5035 24.3467 53.5435 24.56 54.7169 24.56C55.8102 24.56 56.8369 24.4267 57.7969 24.16C58.7835 23.8667 59.5835 23.5333 60.1969 23.16C60.6235 23.4267 60.9835 23.8 61.2769 24.28C61.5702 24.76 61.7169 25.2667 61.7169 25.8C61.7169 27 61.1569 27.8933 60.0369 28.48C59.1835 28.9333 58.2235 29.24 57.1569 29.4C56.0902 29.56 55.0902 29.64 54.1569 29.64ZM53.0369 13.92C52.3969 13.92 51.8369 14.0267 51.3569 14.24C50.9035 14.4533 50.5302 14.7333 50.2369 15.08C49.9435 15.4 49.7169 15.7733 49.5569 16.2C49.4235 16.6 49.3435 17.0133 49.3169 17.44L56.1569 16.32C56.0769 15.7867 55.7835 15.2533 55.2769 14.72C54.7702 14.1867 54.0235 13.92 53.0369 13.92ZM65.71 21.56C65.5233 21.2667 65.35 20.88 65.19 20.4C65.03 19.92 64.95 19.4133 64.95 18.88C64.95 17.8933 65.1767 17.1867 65.63 16.76C66.0833 16.3067 66.67 16.08 67.39 16.08H75.95C76.11 16.3733 76.27 16.76 76.43 17.24C76.6167 17.72 76.71 18.2267 76.71 18.76C76.71 19.7467 76.4833 20.4667 76.03 20.92C75.5767 21.3467 74.99 21.56 74.27 21.56H65.71ZM78.1597 10.36C77.973 10.0667 77.7997 9.66667 77.6397 9.16C77.4797 8.65333 77.3997 8.12 77.3997 7.56C77.3997 6.52 77.6264 5.77333 78.0797 5.32C78.5597 4.86667 79.173 4.64 79.9197 4.64H97.3597C97.5464 4.93333 97.7197 5.33333 97.8797 5.84C98.0397 6.34667 98.1197 6.88 98.1197 7.44C98.1197 8.48 97.8797 9.22667 97.3997 9.68C96.9464 10.1333 96.3464 10.36 95.5997 10.36H91.1597V28.84C90.8664 28.92 90.3997 29 89.7597 29.08C89.1464 29.16 88.533 29.2 87.9197 29.2C87.3064 29.2 86.7597 29.1467 86.2797 29.04C85.8264 28.96 85.4397 28.8 85.1197 28.56C84.7997 28.32 84.5597 27.9867 84.3997 27.56C84.2397 27.1333 84.1597 26.5733 84.1597 25.88V10.36H78.1597ZM108.883 29.64C107.31 29.64 105.843 29.4267 104.483 29C103.15 28.5467 101.977 27.88 100.963 27C99.9768 26.12 99.1901 25.0133 98.6034 23.68C98.0434 22.3467 97.7634 20.7867 97.7634 19C97.7634 17.24 98.0434 15.7333 98.6034 14.48C99.1901 13.2 99.9501 12.16 100.883 11.36C101.817 10.5333 102.883 9.93333 104.083 9.56C105.283 9.16 106.51 8.96 107.763 8.96C109.177 8.96 110.457 9.17333 111.603 9.6C112.777 10.0267 113.777 10.6133 114.603 11.36C115.457 12.1067 116.11 13 116.563 14.04C117.043 15.08 117.283 16.2133 117.283 17.44C117.283 18.3467 117.03 19.04 116.523 19.52C116.017 20 115.31 20.3067 114.403 20.44L104.523 21.92C104.817 22.8 105.417 23.4667 106.323 23.92C107.23 24.3467 108.27 24.56 109.443 24.56C110.537 24.56 111.563 24.4267 112.523 24.16C113.51 23.8667 114.31 23.5333 114.923 23.16C115.35 23.4267 115.71 23.8 116.003 24.28C116.297 24.76 116.443 25.2667 116.443 25.8C116.443 27 115.883 27.8933 114.763 28.48C113.91 28.9333 112.95 29.24 111.883 29.4C110.817 29.56 109.817 29.64 108.883 29.64ZM107.763 13.92C107.123 13.92 106.563 14.0267 106.083 14.24C105.63 14.4533 105.257 14.7333 104.963 15.08C104.67 15.4 104.443 15.7733 104.283 16.2C104.15 16.6 104.07 17.0133 104.043 17.44L110.883 16.32C110.803 15.7867 110.51 15.2533 110.003 14.72C109.497 14.1867 108.75 13.92 107.763 13.92ZM130.837 29.64C129.263 29.64 127.797 29.4267 126.437 29C125.103 28.5467 123.93 27.88 122.917 27C121.93 26.12 121.143 25.0133 120.557 23.68C119.997 22.3467 119.717 20.7867 119.717 19C119.717 17.24 119.997 15.7333 120.557 14.48C121.143 13.2 121.903 12.16 122.837 11.36C123.77 10.5333 124.837 9.93333 126.037 9.56C127.237 9.16 128.463 8.96 129.717 8.96C131.13 8.96 132.41 9.17333 133.557 9.6C134.73 10.0267 135.73 10.6133 136.557 11.36C137.41 12.1067 138.063 13 138.517 14.04C138.997 15.08 139.237 16.2133 139.237 17.44C139.237 18.3467 138.983 19.04 138.477 19.52C137.97 20 137.263 20.3067 136.357 20.44L126.477 21.92C126.77 22.8 127.37 23.4667 128.277 23.92C129.183 24.3467 130.223 24.56 131.397 24.56C132.49 24.56 133.517 24.4267 134.477 24.16C135.463 23.8667 136.263 23.5333 136.877 23.16C137.303 23.4267 137.663 23.8 137.957 24.28C138.25 24.76 138.397 25.2667 138.397 25.8C138.397 27 137.837 27.8933 136.717 28.48C135.863 28.9333 134.903 29.24 133.837 29.4C132.77 29.56 131.77 29.64 130.837 29.64ZM129.717 13.92C129.077 13.92 128.517 14.0267 128.037 14.24C127.583 14.4533 127.21 14.7333 126.917 15.08C126.623 15.4 126.397 15.7733 126.237 16.2C126.103 16.6 126.023 17.0133 125.997 17.44L132.837 16.32C132.757 15.7867 132.463 15.2533 131.957 14.72C131.45 14.1867 130.703 13.92 129.717 13.92ZM163.398 9.64C161.344 9.64 159.771 10.2667 158.678 11.52C157.584 12.7733 157.038 14.5467 157.038 16.84C157.038 19.16 157.638 20.9467 158.838 22.2C160.064 23.4533 161.704 24.08 163.758 24.08C164.851 24.08 165.771 23.9333 166.518 23.64C167.291 23.3467 168.024 23.0133 168.718 22.64C169.171 23.0133 169.518 23.4667 169.758 24C170.024 24.5067 170.158 25.1067 170.158 25.8C170.158 26.8933 169.544 27.8267 168.318 28.6C167.118 29.3467 165.278 29.72 162.798 29.72C161.011 29.72 159.331 29.4667 157.758 28.96C156.184 28.4533 154.811 27.68 153.638 26.64C152.464 25.5733 151.531 24.24 150.838 22.64C150.171 21.0133 149.838 19.08 149.838 16.84C149.838 14.76 150.158 12.9333 150.798 11.36C151.464 9.76 152.358 8.41333 153.478 7.32C154.624 6.22667 155.958 5.4 157.478 4.84C158.998 4.28 160.624 4 162.358 4C164.811 4 166.704 4.4 168.038 5.2C169.398 6 170.078 7.02667 170.078 8.28C170.078 8.97333 169.904 9.57333 169.557 10.08C169.211 10.5867 168.811 10.9867 168.358 11.28C167.664 10.8267 166.918 10.44 166.118 10.12C165.344 9.8 164.438 9.64 163.398 9.64ZM192.569 28.96C192.302 29.04 191.876 29.12 191.289 29.2C190.729 29.28 190.142 29.32 189.529 29.32C188.942 29.32 188.409 29.28 187.929 29.2C187.476 29.12 187.089 28.96 186.769 28.72C186.449 28.48 186.196 28.16 186.009 27.76C185.849 27.3333 185.769 26.7867 185.769 26.12V17.24C185.769 16.1467 185.489 15.3867 184.929 14.96C184.396 14.5067 183.729 14.28 182.929 14.28C182.396 14.28 181.889 14.3467 181.409 14.48C180.929 14.6133 180.542 14.7733 180.249 14.96V28.96C179.982 29.04 179.556 29.12 178.969 29.2C178.409 29.28 177.822 29.32 177.209 29.32C176.622 29.32 176.089 29.28 175.609 29.2C175.156 29.12 174.769 28.96 174.449 28.72C174.129 28.48 173.876 28.16 173.689 27.76C173.529 27.3333 173.449 26.7867 173.449 26.12V2.92C173.742 2.86667 174.169 2.8 174.729 2.72C175.316 2.61333 175.902 2.56 176.489 2.56C177.076 2.56 177.596 2.6 178.049 2.68C178.529 2.76 178.929 2.92 179.249 3.16C179.569 3.4 179.809 3.73333 179.969 4.16C180.156 4.56 180.249 5.09333 180.249 5.76V9.68C180.596 9.54667 181.116 9.4 181.809 9.24C182.529 9.05333 183.316 8.96 184.169 8.96C186.809 8.96 188.862 9.62666 190.329 10.96C191.822 12.2667 192.569 14.2267 192.569 16.84V28.96ZM196.608 4.16C196.608 3.14666 196.941 2.29333 197.608 1.6C198.301 0.906665 199.208 0.559999 200.328 0.559999C201.448 0.559999 202.341 0.906665 203.008 1.6C203.701 2.29333 204.048 3.14666 204.048 4.16C204.048 5.17333 203.701 6.02667 203.008 6.72C202.341 7.41333 201.448 7.76 200.328 7.76C199.208 7.76 198.301 7.41333 197.608 6.72C196.941 6.02667 196.608 5.17333 196.608 4.16ZM203.728 28.96C203.434 29.0133 202.994 29.08 202.408 29.16C201.848 29.2667 201.274 29.32 200.688 29.32C200.101 29.32 199.568 29.28 199.088 29.2C198.634 29.12 198.248 28.96 197.928 28.72C197.608 28.48 197.354 28.16 197.168 27.76C197.008 27.3333 196.928 26.7867 196.928 26.12V9.84C197.221 9.78667 197.648 9.72 198.208 9.64C198.794 9.53333 199.381 9.48 199.967 9.48C200.554 9.48 201.074 9.52 201.528 9.6C202.008 9.68 202.408 9.84 202.728 10.08C203.048 10.32 203.288 10.6533 203.448 11.08C203.634 11.48 203.728 12.0133 203.728 12.68V28.96ZM214.977 28.96C214.683 29.0133 214.243 29.08 213.657 29.16C213.097 29.2667 212.523 29.32 211.937 29.32C211.35 29.32 210.817 29.28 210.337 29.2C209.883 29.12 209.497 28.96 209.177 28.72C208.857 28.48 208.603 28.16 208.417 27.76C208.257 27.3333 208.177 26.7867 208.177 26.12V2.92C208.47 2.86667 208.897 2.8 209.457 2.72C210.043 2.61333 210.63 2.56 211.217 2.56C211.803 2.56 212.323 2.6 212.777 2.68C213.257 2.76 213.657 2.92 213.977 3.16C214.297 3.4 214.537 3.73333 214.697 4.16C214.883 4.56 214.977 5.09333 214.977 5.76V28.96ZM226.188 28.96C225.894 29.0133 225.454 29.08 224.868 29.16C224.308 29.2667 223.734 29.32 223.148 29.32C222.561 29.32 222.028 29.28 221.548 29.2C221.094 29.12 220.708 28.96 220.388 28.72C220.068 28.48 219.814 28.16 219.628 27.76C219.468 27.3333 219.388 26.7867 219.388 26.12V2.92C219.681 2.86667 220.108 2.8 220.668 2.72C221.254 2.61333 221.841 2.56 222.428 2.56C223.014 2.56 223.534 2.6 223.988 2.68C224.468 2.76 224.868 2.92 225.188 3.16C225.508 3.4 225.748 3.73333 225.908 4.16C226.094 4.56 226.188 5.09333 226.188 5.76V28.96ZM230.318 4.16C230.318 3.14666 230.652 2.29333 231.318 1.6C232.012 0.906665 232.918 0.559999 234.038 0.559999C235.158 0.559999 236.052 0.906665 236.718 1.6C237.412 2.29333 237.758 3.14666 237.758 4.16C237.758 5.17333 237.412 6.02667 236.718 6.72C236.052 7.41333 235.158 7.76 234.038 7.76C232.918 7.76 232.012 7.41333 231.318 6.72C230.652 6.02667 230.318 5.17333 230.318 4.16ZM237.438 28.96C237.145 29.0133 236.705 29.08 236.118 29.16C235.558 29.2667 234.985 29.32 234.398 29.32C233.812 29.32 233.278 29.28 232.798 29.2C232.345 29.12 231.958 28.96 231.638 28.72C231.318 28.48 231.065 28.16 230.878 27.76C230.718 27.3333 230.638 26.7867 230.638 26.12V9.84C230.932 9.78667 231.358 9.72 231.918 9.64C232.505 9.53333 233.092 9.48 233.678 9.48C234.265 9.48 234.785 9.52 235.238 9.6C235.718 9.68 236.118 9.84 236.438 10.08C236.758 10.32 236.998 10.6533 237.158 11.08C237.345 11.48 237.438 12.0133 237.438 12.68V28.96ZM252.048 29.64C250.474 29.64 249.008 29.4267 247.648 29C246.314 28.5467 245.141 27.88 244.128 27C243.141 26.12 242.354 25.0133 241.768 23.68C241.208 22.3467 240.928 20.7867 240.928 19C240.928 17.24 241.208 15.7333 241.768 14.48C242.354 13.2 243.114 12.16 244.048 11.36C244.981 10.5333 246.048 9.93333 247.248 9.56C248.448 9.16 249.674 8.96 250.928 8.96C252.341 8.96 253.621 9.17333 254.768 9.6C255.941 10.0267 256.941 10.6133 257.768 11.36C258.621 12.1067 259.274 13 259.728 14.04C260.208 15.08 260.448 16.2133 260.448 17.44C260.448 18.3467 260.194 19.04 259.688 19.52C259.181 20 258.474 20.3067 257.568 20.44L247.688 21.92C247.981 22.8 248.581 23.4667 249.488 23.92C250.394 24.3467 251.434 24.56 252.608 24.56C253.701 24.56 254.728 24.4267 255.688 24.16C256.674 23.8667 257.474 23.5333 258.088 23.16C258.514 23.4267 258.874 23.8 259.168 24.28C259.461 24.76 259.608 25.2667 259.608 25.8C259.608 27 259.048 27.8933 257.928 28.48C257.074 28.9333 256.114 29.24 255.048 29.4C253.981 29.56 252.981 29.64 252.048 29.64ZM250.928 13.92C250.288 13.92 249.728 14.0267 249.248 14.24C248.794 14.4533 248.421 14.7333 248.128 15.08C247.834 15.4 247.608 15.7733 247.448 16.2C247.314 16.6 247.234 17.0133 247.208 17.44L254.048 16.32C253.968 15.7867 253.674 15.2533 253.168 14.72C252.661 14.1867 251.914 13.92 250.928 13.92ZM280.121 23.2C280.121 25.2267 279.361 26.8133 277.841 27.96C276.321 29.1067 274.081 29.68 271.121 29.68C270.001 29.68 268.961 29.6 268.001 29.44C267.041 29.28 266.214 29.04 265.521 28.72C264.854 28.3733 264.321 27.9467 263.921 27.44C263.547 26.9333 263.361 26.3333 263.361 25.64C263.361 25 263.494 24.4667 263.761 24.04C264.027 23.5867 264.347 23.2133 264.721 22.92C265.494 23.3467 266.374 23.7333 267.361 24.08C268.374 24.4 269.534 24.56 270.841 24.56C271.667 24.56 272.294 24.44 272.721 24.2C273.174 23.96 273.401 23.64 273.401 23.24C273.401 22.8667 273.241 22.5733 272.921 22.36C272.601 22.1467 272.067 21.9733 271.321 21.84L270.121 21.6C267.801 21.1467 266.067 20.44 264.921 19.48C263.801 18.4933 263.241 17.0933 263.241 15.28C263.241 14.2933 263.454 13.4 263.881 12.6C264.307 11.8 264.907 11.1333 265.681 10.6C266.454 10.0667 267.374 9.65333 268.441 9.36C269.534 9.06667 270.734 8.92 272.041 8.92C273.027 8.92 273.947 9 274.801 9.16C275.681 9.29333 276.441 9.50667 277.081 9.8C277.721 10.0933 278.227 10.48 278.601 10.96C278.974 11.4133 279.161 11.96 279.161 12.6C279.161 13.2133 279.041 13.7467 278.801 14.2C278.587 14.6267 278.307 14.9867 277.961 15.28C277.747 15.1467 277.427 15.0133 277.001 14.88C276.574 14.72 276.107 14.5867 275.601 14.48C275.094 14.3467 274.574 14.24 274.041 14.16C273.534 14.08 273.067 14.04 272.641 14.04C271.761 14.04 271.081 14.1467 270.601 14.36C270.121 14.5467 269.881 14.8533 269.881 15.28C269.881 15.5733 270.014 15.8133 270.281 16C270.547 16.1867 271.054 16.36 271.801 16.52L273.041 16.8C275.601 17.3867 277.414 18.2 278.481 19.24C279.574 20.2533 280.121 21.5733 280.121 23.2Z" fill="#7A0808"/>
</svg>
