<svg width="40" height="40" viewBox="0 0 40 40" fill="none" xmlns="http://www.w3.org/2000/svg">
<path fill-rule="evenodd" clip-rule="evenodd" d="M6.66667 1.66675H5V25.0001H16.6667V27.0834H3.75V37.9167H36.25V27.0834H23.3333V25.0001H35V1.66675H6.66667ZM8.33333 21.6667V5.00008H31.6667V21.6667H8.33333ZM22.5 33.7501H17.5V31.2501H22.5V33.7501ZM22.1433 10.0001V10.8334H25.4767V9.79175C25.4767 7.95841 23.92 6.66675 22.2467 6.66675H18.23C16.5633 6.66675 15.0133 7.94675 15 9.76675V10.7817C15 12.2484 16.0283 13.4284 17.3533 13.7901L22.1433 15.0934V16.6667H18.3333V15.8334H15V16.8751C15 18.7084 16.5567 20.0001 18.23 20.0001H22.2467C23.92 20.0001 25.4767 18.7084 25.4767 16.8751V14.9134C25.4767 13.4467 24.4467 12.2651 23.1217 11.9051L18.3333 10.6017V10.0001H22.1433Z" fill="#575757"/>
</svg>
