<svg width="211" height="116" viewBox="0 0 211 116" fill="none" xmlns="http://www.w3.org/2000/svg">
<path d="M1.11 86.02C0.97 85.8 0.84 85.5 0.72 85.12C0.6 84.74 0.54 84.34 0.54 83.92C0.54 83.14 0.71 82.58 1.05 82.24C1.41 81.9 1.87 81.73 2.43 81.73H15.51C15.65 81.95 15.78 82.25 15.9 82.63C16.02 83.01 16.08 83.41 16.08 83.83C16.08 84.61 15.9 85.17 15.54 85.51C15.2 85.85 14.75 86.02 14.19 86.02H10.86V99.88C10.64 99.94 10.29 100 9.81 100.06C9.35 100.12 8.89 100.15 8.43 100.15C7.97 100.15 7.56 100.11 7.2 100.03C6.86 99.97 6.57 99.85 6.33 99.67C6.09 99.49 5.91 99.24 5.79 98.92C5.67 98.6 5.61 98.18 5.61 97.66V86.02H1.11ZM24.1528 100.48C22.9728 100.48 21.8728 100.32 20.8528 100C19.8528 99.66 18.9728 99.16 18.2128 98.5C17.4728 97.84 16.8828 97.01 16.4428 96.01C16.0228 95.01 15.8128 93.84 15.8128 92.5C15.8128 91.18 16.0228 90.05 16.4428 89.11C16.8828 88.15 17.4528 87.37 18.1528 86.77C18.8528 86.15 19.6528 85.7 20.5528 85.42C21.4528 85.12 22.3728 84.97 23.3128 84.97C24.3728 84.97 25.3328 85.13 26.1928 85.45C27.0728 85.77 27.8228 86.21 28.4428 86.77C29.0828 87.33 29.5728 88 29.9128 88.78C30.2728 89.56 30.4528 90.41 30.4528 91.33C30.4528 92.01 30.2628 92.53 29.8828 92.89C29.5028 93.25 28.9728 93.48 28.2928 93.58L20.8828 94.69C21.1028 95.35 21.5528 95.85 22.2328 96.19C22.9128 96.51 23.6928 96.67 24.5728 96.67C25.3928 96.67 26.1628 96.57 26.8828 96.37C27.6228 96.15 28.2228 95.9 28.6828 95.62C29.0028 95.82 29.2728 96.1 29.4928 96.46C29.7128 96.82 29.8228 97.2 29.8228 97.6C29.8228 98.5 29.4028 99.17 28.5628 99.61C27.9228 99.95 27.2028 100.18 26.4028 100.3C25.6028 100.42 24.8528 100.48 24.1528 100.48ZM23.3128 88.69C22.8328 88.69 22.4128 88.77 22.0528 88.93C21.7128 89.09 21.4328 89.3 21.2128 89.56C20.9928 89.8 20.8228 90.08 20.7028 90.4C20.6028 90.7 20.5428 91.01 20.5228 91.33L25.6528 90.49C25.5928 90.09 25.3728 89.69 24.9928 89.29C24.6128 88.89 24.0528 88.69 23.3128 88.69ZM40.6177 100.48C39.4377 100.48 38.3377 100.32 37.3177 100C36.3177 99.66 35.4377 99.16 34.6777 98.5C33.9377 97.84 33.3477 97.01 32.9077 96.01C32.4877 95.01 32.2777 93.84 32.2777 92.5C32.2777 91.18 32.4877 90.05 32.9077 89.11C33.3477 88.15 33.9177 87.37 34.6177 86.77C35.3177 86.15 36.1177 85.7 37.0177 85.42C37.9177 85.12 38.8377 84.97 39.7777 84.97C40.8377 84.97 41.7977 85.13 42.6577 85.45C43.5377 85.77 44.2877 86.21 44.9077 86.77C45.5477 87.33 46.0377 88 46.3777 88.78C46.7377 89.56 46.9177 90.41 46.9177 91.33C46.9177 92.01 46.7277 92.53 46.3477 92.89C45.9677 93.25 45.4377 93.48 44.7577 93.58L37.3477 94.69C37.5677 95.35 38.0177 95.85 38.6977 96.19C39.3777 96.51 40.1577 96.67 41.0377 96.67C41.8577 96.67 42.6277 96.57 43.3477 96.37C44.0877 96.15 44.6877 95.9 45.1477 95.62C45.4677 95.82 45.7377 96.1 45.9577 96.46C46.1777 96.82 46.2877 97.2 46.2877 97.6C46.2877 98.5 45.8677 99.17 45.0277 99.61C44.3877 99.95 43.6677 100.18 42.8677 100.3C42.0677 100.42 41.3177 100.48 40.6177 100.48ZM39.7777 88.69C39.2977 88.69 38.8777 88.77 38.5177 88.93C38.1777 89.09 37.8977 89.3 37.6777 89.56C37.4577 89.8 37.2877 90.08 37.1677 90.4C37.0677 90.7 37.0077 91.01 36.9877 91.33L42.1177 90.49C42.0577 90.09 41.8377 89.69 41.4577 89.29C41.0777 88.89 40.5177 88.69 39.7777 88.69ZM49.2825 94.42C49.1425 94.2 49.0125 93.91 48.8925 93.55C48.7725 93.19 48.7125 92.81 48.7125 92.41C48.7125 91.67 48.8825 91.14 49.2225 90.82C49.5625 90.48 50.0025 90.31 50.5425 90.31H56.9625C57.0825 90.53 57.2025 90.82 57.3225 91.18C57.4625 91.54 57.5325 91.92 57.5325 92.32C57.5325 93.06 57.3625 93.6 57.0225 93.94C56.6825 94.26 56.2425 94.42 55.7025 94.42H49.2825ZM58.6198 86.02C58.4798 85.8 58.3498 85.5 58.2298 85.12C58.1098 84.74 58.0498 84.34 58.0498 83.92C58.0498 83.14 58.2198 82.58 58.5598 82.24C58.9198 81.9 59.3798 81.73 59.9398 81.73H73.0198C73.1598 81.95 73.2898 82.25 73.4098 82.63C73.5298 83.01 73.5898 83.41 73.5898 83.83C73.5898 84.61 73.4098 85.17 73.0498 85.51C72.7098 85.85 72.2598 86.02 71.6998 86.02H68.3698V99.88C68.1498 99.94 67.7998 100 67.3198 100.06C66.8598 100.12 66.3998 100.15 65.9398 100.15C65.4798 100.15 65.0698 100.11 64.7098 100.03C64.3698 99.97 64.0798 99.85 63.8398 99.67C63.5998 99.49 63.4198 99.24 63.2998 98.92C63.1798 98.6 63.1198 98.18 63.1198 97.66V86.02H58.6198ZM81.6626 100.48C80.4826 100.48 79.3826 100.32 78.3626 100C77.3626 99.66 76.4826 99.16 75.7226 98.5C74.9826 97.84 74.3926 97.01 73.9526 96.01C73.5326 95.01 73.3226 93.84 73.3226 92.5C73.3226 91.18 73.5326 90.05 73.9526 89.11C74.3926 88.15 74.9626 87.37 75.6626 86.77C76.3626 86.15 77.1626 85.7 78.0626 85.42C78.9626 85.12 79.8826 84.97 80.8226 84.97C81.8826 84.97 82.8426 85.13 83.7026 85.45C84.5826 85.77 85.3326 86.21 85.9526 86.77C86.5926 87.33 87.0826 88 87.4226 88.78C87.7826 89.56 87.9626 90.41 87.9626 91.33C87.9626 92.01 87.7726 92.53 87.3926 92.89C87.0126 93.25 86.4826 93.48 85.8026 93.58L78.3926 94.69C78.6126 95.35 79.0626 95.85 79.7426 96.19C80.4226 96.51 81.2026 96.67 82.0826 96.67C82.9026 96.67 83.6726 96.57 84.3926 96.37C85.1326 96.15 85.7326 95.9 86.1926 95.62C86.5126 95.82 86.7826 96.1 87.0026 96.46C87.2226 96.82 87.3326 97.2 87.3326 97.6C87.3326 98.5 86.9126 99.17 86.0726 99.61C85.4326 99.95 84.7126 100.18 83.9126 100.3C83.1126 100.42 82.3626 100.48 81.6626 100.48ZM80.8226 88.69C80.3426 88.69 79.9226 88.77 79.5626 88.93C79.2226 89.09 78.9426 89.3 78.7226 89.56C78.5026 89.8 78.3326 90.08 78.2126 90.4C78.1126 90.7 78.0526 91.01 78.0326 91.33L83.1626 90.49C83.1026 90.09 82.8826 89.69 82.5026 89.29C82.1226 88.89 81.5626 88.69 80.8226 88.69ZM98.1274 100.48C96.9474 100.48 95.8474 100.32 94.8274 100C93.8274 99.66 92.9474 99.16 92.1874 98.5C91.4474 97.84 90.8574 97.01 90.4174 96.01C89.9974 95.01 89.7874 93.84 89.7874 92.5C89.7874 91.18 89.9974 90.05 90.4174 89.11C90.8574 88.15 91.4274 87.37 92.1274 86.77C92.8274 86.15 93.6274 85.7 94.5274 85.42C95.4274 85.12 96.3474 84.97 97.2874 84.97C98.3474 84.97 99.3074 85.13 100.167 85.45C101.047 85.77 101.797 86.21 102.417 86.77C103.057 87.33 103.547 88 103.887 88.78C104.247 89.56 104.427 90.41 104.427 91.33C104.427 92.01 104.237 92.53 103.857 92.89C103.477 93.25 102.947 93.48 102.267 93.58L94.8574 94.69C95.0774 95.35 95.5274 95.85 96.2074 96.19C96.8874 96.51 97.6674 96.67 98.5474 96.67C99.3674 96.67 100.137 96.57 100.857 96.37C101.597 96.15 102.197 95.9 102.657 95.62C102.977 95.82 103.247 96.1 103.467 96.46C103.687 96.82 103.797 97.2 103.797 97.6C103.797 98.5 103.377 99.17 102.537 99.61C101.897 99.95 101.177 100.18 100.377 100.3C99.5774 100.42 98.8274 100.48 98.1274 100.48ZM97.2874 88.69C96.8074 88.69 96.3874 88.77 96.0274 88.93C95.6874 89.09 95.4074 89.3 95.1874 89.56C94.9674 89.8 94.7974 90.08 94.6774 90.4C94.5774 90.7 94.5174 91.01 94.4974 91.33L99.6274 90.49C99.5674 90.09 99.3474 89.69 98.9674 89.29C98.5874 88.89 98.0274 88.69 97.2874 88.69ZM122.548 85.48C121.008 85.48 119.828 85.95 119.008 86.89C118.188 87.83 117.778 89.16 117.778 90.88C117.778 92.62 118.228 93.96 119.128 94.9C120.048 95.84 121.278 96.31 122.818 96.31C123.638 96.31 124.328 96.2 124.888 95.98C125.468 95.76 126.018 95.51 126.538 95.23C126.878 95.51 127.138 95.85 127.318 96.25C127.518 96.63 127.618 97.08 127.618 97.6C127.618 98.42 127.158 99.12 126.238 99.7C125.338 100.26 123.958 100.54 122.098 100.54C120.758 100.54 119.498 100.35 118.318 99.97C117.138 99.59 116.108 99.01 115.228 98.23C114.348 97.43 113.648 96.43 113.128 95.23C112.628 94.01 112.378 92.56 112.378 90.88C112.378 89.32 112.618 87.95 113.098 86.77C113.598 85.57 114.268 84.56 115.108 83.74C115.968 82.92 116.968 82.3 118.108 81.88C119.248 81.46 120.468 81.25 121.768 81.25C123.608 81.25 125.028 81.55 126.028 82.15C127.048 82.75 127.558 83.52 127.558 84.46C127.558 84.98 127.428 85.43 127.168 85.81C126.908 86.19 126.608 86.49 126.268 86.71C125.748 86.37 125.188 86.08 124.588 85.84C124.008 85.6 123.328 85.48 122.548 85.48ZM144.427 99.97C144.227 100.03 143.907 100.09 143.467 100.15C143.047 100.21 142.607 100.24 142.147 100.24C141.707 100.24 141.307 100.21 140.947 100.15C140.607 100.09 140.317 99.97 140.077 99.79C139.837 99.61 139.647 99.37 139.507 99.07C139.387 98.75 139.327 98.34 139.327 97.84V91.18C139.327 90.36 139.117 89.79 138.697 89.47C138.297 89.13 137.797 88.96 137.197 88.96C136.797 88.96 136.417 89.01 136.057 89.11C135.697 89.21 135.407 89.33 135.187 89.47V99.97C134.987 100.03 134.667 100.09 134.227 100.15C133.807 100.21 133.367 100.24 132.907 100.24C132.467 100.24 132.067 100.21 131.707 100.15C131.367 100.09 131.077 99.97 130.837 99.79C130.597 99.61 130.407 99.37 130.267 99.07C130.147 98.75 130.087 98.34 130.087 97.84V80.44C130.307 80.4 130.627 80.35 131.047 80.29C131.487 80.21 131.927 80.17 132.367 80.17C132.807 80.17 133.197 80.2 133.537 80.26C133.897 80.32 134.197 80.44 134.437 80.62C134.677 80.8 134.857 81.05 134.977 81.37C135.117 81.67 135.187 82.07 135.187 82.57V85.51C135.447 85.41 135.837 85.3 136.357 85.18C136.897 85.04 137.487 84.97 138.127 84.97C140.107 84.97 141.647 85.47 142.747 86.47C143.867 87.45 144.427 88.92 144.427 90.88V99.97ZM147.456 81.37C147.456 80.61 147.706 79.97 148.206 79.45C148.726 78.93 149.406 78.67 150.246 78.67C151.086 78.67 151.756 78.93 152.256 79.45C152.776 79.97 153.036 80.61 153.036 81.37C153.036 82.13 152.776 82.77 152.256 83.29C151.756 83.81 151.086 84.07 150.246 84.07C149.406 84.07 148.726 83.81 148.206 83.29C147.706 82.77 147.456 82.13 147.456 81.37ZM152.796 99.97C152.576 100.01 152.246 100.06 151.806 100.12C151.386 100.2 150.956 100.24 150.516 100.24C150.076 100.24 149.676 100.21 149.316 100.15C148.976 100.09 148.686 99.97 148.446 99.79C148.206 99.61 148.016 99.37 147.876 99.07C147.756 98.75 147.696 98.34 147.696 97.84V85.63C147.916 85.59 148.236 85.54 148.656 85.48C149.096 85.4 149.536 85.36 149.976 85.36C150.416 85.36 150.806 85.39 151.146 85.45C151.506 85.51 151.806 85.63 152.046 85.81C152.286 85.99 152.466 86.24 152.586 86.56C152.726 86.86 152.796 87.26 152.796 87.76V99.97ZM161.232 99.97C161.012 100.01 160.682 100.06 160.242 100.12C159.822 100.2 159.392 100.24 158.952 100.24C158.512 100.24 158.112 100.21 157.752 100.15C157.412 100.09 157.122 99.97 156.882 99.79C156.642 99.61 156.452 99.37 156.312 99.07C156.192 98.75 156.132 98.34 156.132 97.84V80.44C156.352 80.4 156.672 80.35 157.092 80.29C157.532 80.21 157.972 80.17 158.412 80.17C158.852 80.17 159.242 80.2 159.582 80.26C159.942 80.32 160.242 80.44 160.482 80.62C160.722 80.8 160.902 81.05 161.022 81.37C161.162 81.67 161.232 82.07 161.232 82.57V99.97ZM169.641 99.97C169.421 100.01 169.091 100.06 168.651 100.12C168.231 100.2 167.801 100.24 167.361 100.24C166.921 100.24 166.521 100.21 166.161 100.15C165.821 100.09 165.531 99.97 165.291 99.79C165.051 99.61 164.861 99.37 164.721 99.07C164.601 98.75 164.541 98.34 164.541 97.84V80.44C164.761 80.4 165.081 80.35 165.501 80.29C165.941 80.21 166.381 80.17 166.821 80.17C167.261 80.17 167.651 80.2 167.991 80.26C168.351 80.32 168.651 80.44 168.891 80.62C169.131 80.8 169.311 81.05 169.431 81.37C169.571 81.67 169.641 82.07 169.641 82.57V99.97ZM172.739 81.37C172.739 80.61 172.989 79.97 173.489 79.45C174.009 78.93 174.689 78.67 175.529 78.67C176.369 78.67 177.039 78.93 177.539 79.45C178.059 79.97 178.319 80.61 178.319 81.37C178.319 82.13 178.059 82.77 177.539 83.29C177.039 83.81 176.369 84.07 175.529 84.07C174.689 84.07 174.009 83.81 173.489 83.29C172.989 82.77 172.739 82.13 172.739 81.37ZM178.079 99.97C177.859 100.01 177.529 100.06 177.089 100.12C176.669 100.2 176.239 100.24 175.799 100.24C175.359 100.24 174.959 100.21 174.599 100.15C174.259 100.09 173.969 99.97 173.729 99.79C173.489 99.61 173.299 99.37 173.159 99.07C173.039 98.75 172.979 98.34 172.979 97.84V85.63C173.199 85.59 173.519 85.54 173.939 85.48C174.379 85.4 174.819 85.36 175.259 85.36C175.699 85.36 176.089 85.39 176.429 85.45C176.789 85.51 177.089 85.63 177.329 85.81C177.569 85.99 177.749 86.24 177.869 86.56C178.009 86.86 178.079 87.26 178.079 87.76V99.97ZM189.036 100.48C187.856 100.48 186.756 100.32 185.736 100C184.736 99.66 183.856 99.16 183.096 98.5C182.356 97.84 181.766 97.01 181.326 96.01C180.906 95.01 180.696 93.84 180.696 92.5C180.696 91.18 180.906 90.05 181.326 89.11C181.766 88.15 182.336 87.37 183.036 86.77C183.736 86.15 184.536 85.7 185.436 85.42C186.336 85.12 187.256 84.97 188.196 84.97C189.256 84.97 190.216 85.13 191.076 85.45C191.956 85.77 192.706 86.21 193.326 86.77C193.966 87.33 194.456 88 194.796 88.78C195.156 89.56 195.336 90.41 195.336 91.33C195.336 92.01 195.146 92.53 194.766 92.89C194.386 93.25 193.856 93.48 193.176 93.58L185.766 94.69C185.986 95.35 186.436 95.85 187.116 96.19C187.796 96.51 188.576 96.67 189.456 96.67C190.276 96.67 191.046 96.57 191.766 96.37C192.506 96.15 193.106 95.9 193.566 95.62C193.886 95.82 194.156 96.1 194.376 96.46C194.596 96.82 194.706 97.2 194.706 97.6C194.706 98.5 194.286 99.17 193.446 99.61C192.806 99.95 192.086 100.18 191.286 100.3C190.486 100.42 189.736 100.48 189.036 100.48ZM188.196 88.69C187.716 88.69 187.296 88.77 186.936 88.93C186.596 89.09 186.316 89.3 186.096 89.56C185.876 89.8 185.706 90.08 185.586 90.4C185.486 90.7 185.426 91.01 185.406 91.33L190.536 90.49C190.476 90.09 190.256 89.69 189.876 89.29C189.496 88.89 188.936 88.69 188.196 88.69ZM210.09 95.65C210.09 97.17 209.52 98.36 208.38 99.22C207.24 100.08 205.56 100.51 203.34 100.51C202.5 100.51 201.72 100.45 201 100.33C200.28 100.21 199.66 100.03 199.14 99.79C198.64 99.53 198.24 99.21 197.94 98.83C197.66 98.45 197.52 98 197.52 97.48C197.52 97 197.62 96.6 197.82 96.28C198.02 95.94 198.26 95.66 198.54 95.44C199.12 95.76 199.78 96.05 200.52 96.31C201.28 96.55 202.15 96.67 203.13 96.67C203.75 96.67 204.22 96.58 204.54 96.4C204.88 96.22 205.05 95.98 205.05 95.68C205.05 95.4 204.93 95.18 204.69 95.02C204.45 94.86 204.05 94.73 203.49 94.63L202.59 94.45C200.85 94.11 199.55 93.58 198.69 92.86C197.85 92.12 197.43 91.07 197.43 89.71C197.43 88.97 197.59 88.3 197.91 87.7C198.23 87.1 198.68 86.6 199.26 86.2C199.84 85.8 200.53 85.49 201.33 85.27C202.15 85.05 203.05 84.94 204.03 84.94C204.77 84.94 205.46 85 206.1 85.12C206.76 85.22 207.33 85.38 207.81 85.6C208.29 85.82 208.67 86.11 208.95 86.47C209.23 86.81 209.37 87.22 209.37 87.7C209.37 88.16 209.28 88.56 209.1 88.9C208.94 89.22 208.73 89.49 208.47 89.71C208.31 89.61 208.07 89.51 207.75 89.41C207.43 89.29 207.08 89.19 206.7 89.11C206.32 89.01 205.93 88.93 205.53 88.87C205.15 88.81 204.8 88.78 204.48 88.78C203.82 88.78 203.31 88.86 202.95 89.02C202.59 89.16 202.41 89.39 202.41 89.71C202.41 89.93 202.51 90.11 202.71 90.25C202.91 90.39 203.29 90.52 203.85 90.64L204.78 90.85C206.7 91.29 208.06 91.9 208.86 92.68C209.68 93.44 210.09 94.43 210.09 95.65Z" fill="#7A0808"/>
<path fill-rule="evenodd" clip-rule="evenodd" d="M89.3333 2.08325H87.25V31.2499H101.833V33.8541H85.6875V47.3958H126.312V33.8541H110.167V31.2499H124.75V2.08325H89.3333ZM91.4167 27.0833V6.24992H120.583V27.0833H91.4167ZM109.125 42.1874H102.875V39.0624H109.125V42.1874ZM108.679 12.4999V13.5416H112.846V12.2395C112.846 9.94783 110.9 8.33325 108.808 8.33325H103.787C101.704 8.33325 99.7667 9.93325 99.75 12.2083V13.477C99.75 15.3103 101.035 16.7853 102.692 17.2374L108.679 18.8666V20.8333H103.917V19.7916H99.75V21.0937C99.75 23.3853 101.696 24.9999 103.787 24.9999H108.808C110.9 24.9999 112.846 23.3853 112.846 21.0937V18.6416C112.846 16.8083 111.558 15.3312 109.902 14.8812L103.917 13.252V12.4999H108.679Z" fill="#7A0808"/>
</svg>
