<svg width="30" height="30" viewBox="0 0 30 30" fill="none" xmlns="http://www.w3.org/2000/svg">
<path d="M18.3572 14.3906L7.97998 12.5625V26.0709C7.97986 26.2178 8.00872 26.3632 8.0649 26.4988C8.12109 26.6345 8.2035 26.7577 8.3074 26.8614C8.41131 26.9651 8.53467 27.0473 8.67041 27.1033C8.80615 27.1593 8.9516 27.1879 9.09842 27.1875H27.0047C27.1516 27.1881 27.2973 27.1597 27.4333 27.1038C27.5692 27.048 27.6928 26.9658 27.7969 26.8621C27.901 26.7583 27.9836 26.635 28.0399 26.4992C28.0962 26.3635 28.1251 26.2179 28.125 26.0709V21.0938L18.3572 14.3906Z" fill="#185C37"/>
<path d="M18.3572 2.8125H9.09842C8.9516 2.81213 8.80615 2.84075 8.67041 2.89671C8.53467 2.95266 8.41131 3.03487 8.3074 3.1386C8.2035 3.24233 8.12109 3.36555 8.0649 3.5012C8.00872 3.63684 7.97986 3.78224 7.97998 3.92907V8.90625L18.3572 15L23.8519 16.8281L28.125 15V8.90625L18.3572 2.8125Z" fill="#21A366"/>
<path d="M7.97998 8.90625H18.3572V15H7.97998V8.90625Z" fill="#107C41"/>
<path opacity="0.1" d="M15.4069 7.6875H7.97998V22.9219H15.4069C15.7028 22.9204 15.9862 22.8024 16.1958 22.5934C16.4053 22.3844 16.524 22.1012 16.5262 21.8053V8.80406C16.524 8.50813 16.4053 8.22499 16.1958 8.01599C15.9862 7.80699 15.7028 7.68897 15.4069 7.6875Z" fill="black"/>
<path opacity="0.2" d="M14.7965 8.29688H7.97998V23.5312H14.7965C15.0925 23.5298 15.3759 23.4118 15.5854 23.2028C15.795 22.9938 15.9137 22.7106 15.9159 22.4147V9.41344C15.9137 9.11751 15.795 8.83436 15.5854 8.62537C15.3759 8.41637 15.0925 8.29835 14.7965 8.29688Z" fill="black"/>
<path opacity="0.2" d="M14.7965 8.29688H7.97998V22.3125H14.7965C15.0925 22.311 15.3759 22.193 15.5854 21.984C15.795 21.775 15.9137 21.4919 15.9159 21.1959V9.41344C15.9137 9.11751 15.795 8.83436 15.5854 8.62537C15.3759 8.41637 15.0925 8.29835 14.7965 8.29688Z" fill="black"/>
<path opacity="0.2" d="M14.1862 8.29688H7.97998V22.3125H14.1862C14.4822 22.311 14.7656 22.193 14.9751 21.984C15.1847 21.775 15.3034 21.4919 15.3056 21.1959V9.41344C15.3034 9.11751 15.1847 8.83436 14.9751 8.62537C14.7656 8.41637 14.4822 8.29835 14.1862 8.29688Z" fill="black"/>
<path d="M2.99438 8.29688H14.1863C14.4827 8.29663 14.7672 8.4141 14.977 8.62347C15.1869 8.83284 15.3051 9.11698 15.3056 9.41344V20.5866C15.3051 20.883 15.1869 21.1672 14.977 21.3765C14.7672 21.5859 14.4827 21.7034 14.1863 21.7031H2.99438C2.84748 21.7036 2.70192 21.6751 2.56608 21.6192C2.43023 21.5633 2.30676 21.4811 2.20275 21.3774C2.09875 21.2736 2.01625 21.1504 1.96001 21.0147C1.90377 20.8789 1.87488 20.7335 1.875 20.5866V9.41344C1.87488 9.26654 1.90377 9.12106 1.96001 8.98536C2.01625 8.84965 2.09875 8.72639 2.20275 8.62264C2.30676 8.5189 2.43023 8.43672 2.56608 8.38081C2.70192 8.32491 2.84748 8.29639 2.99438 8.29688Z" fill="url(#paint0_linear_198_98)"/>
<path d="M5.34375 18.631L7.69781 14.9898L5.54156 11.3691H7.27312L8.44969 13.6876C8.55844 13.907 8.63719 14.0701 8.67281 14.1788H8.68875C8.76562 14.0032 8.84687 13.8326 8.9325 13.667L10.1906 11.3729H11.7844L9.57281 14.9729L11.8406 18.6338H10.1447L8.78531 16.0923C8.72237 15.9829 8.66875 15.8684 8.625 15.7501H8.6025C8.56277 15.8654 8.50992 15.9758 8.445 16.0791L7.04531 18.631H5.34375Z" fill="white"/>
<path d="M27.0059 2.81251H18.3574V8.90626H28.1252V3.92907C28.1254 3.78217 28.0965 3.63669 28.0402 3.50098C27.984 3.36527 27.9015 3.24201 27.7975 3.13827C27.6935 3.03452 27.57 2.95234 27.4342 2.89644C27.2983 2.84054 27.1528 2.81201 27.0059 2.81251Z" fill="#33C481"/>
<path d="M18.3574 15H28.1252V21.0938H18.3574V15Z" fill="#107C41"/>
<defs>
<linearGradient id="paint0_linear_198_98" x1="4.21313" y1="7.41938" x2="12.9675" y2="22.5806" gradientUnits="userSpaceOnUse">
<stop stop-color="#18884F"/>
<stop offset="0.5" stop-color="#117E43"/>
<stop offset="1" stop-color="#0B6631"/>
</linearGradient>
</defs>
</svg>
